M48
; DRILL file {KiCad 5.1.12-84ad8e8a86~92~ubuntu20.04.1} date Wed 15 Dec 2021 11:08:14 AM
; FORMAT={-:-/ absolute / metric / decimal}
; #@! TF.CreationDate,2021-12-15T11:08:14-07:00
; #@! TF.GenerationSoftware,Kicad,Pcbnew,5.1.12-84ad8e8a86~92~ubuntu20.04.1
; #@! TF.FileFunction,Plated,1,2,PTH
FMAT,2
METRIC
T1C0.300
T2C0.900
T3C1.000
T4C1.300
T5C3.000
%
G90
G05
T1
X1.85Y-84.75
X4.15Y-81.85
X4.15Y-87.65
X10.25Y-18.95
X10.3Y-21.55
X10.35Y-23.9
X10.35Y-28.25
X11.4Y-16.5
X11.55Y-30.65
X12.781Y-18.954
X12.781Y-21.534
X12.95Y-28.3
X13.65Y-14.75
X13.85Y-23.9
X14.4Y-31.0
X15.1Y-28.75
X15.45Y-13.0
X15.502Y-16.426
X17.15Y-11.2
X17.25Y-14.7
X17.25Y-31.15
X17.35Y-28.8
X18.85Y-10.7
X18.85Y-13.1
X19.65Y-32.7
X19.9Y-36.6
X20.5Y-26.6
X20.75Y-23.75
X20.8Y-20.55
X21.45Y-35.1
X22.0Y-10.75
X22.0Y-13.05
X22.25Y-19.05
X22.6Y-30.9
X22.75Y-33.65
X23.1Y-21.85
X23.1Y-25.35
X24.15Y-15.7
X24.3Y-18.4
X25.05Y-10.65
X25.05Y-13.05
X26.6Y-32.0
X26.85Y-28.6
X26.9Y-8.6
X26.9Y-12.25
X27.15Y-30.25
X27.4Y-24.2
X27.45Y-26.85
X28.5Y-32.05
X28.65Y-18.6
X28.65Y-20.7
X28.7Y-15.7
X28.8Y-10.15
X29.35Y-3.65
X29.35Y-6.3
X29.45Y-28.65
X29.65Y-24.0
X30.75Y-30.8
X30.85Y-26.4
X31.2Y-7.9
X31.3Y-21.9
X33.1Y-28.5
X33.3Y-24.15
X33.4Y-20.05
X34.0Y-7.45
X34.05Y-3.55
X35.15Y-15.6
X35.25Y-18.4
X35.3Y-22.1
X35.55Y-26.0
X37.5Y-24.15
X39.75Y-23.25
X39.85Y-15.55
X39.85Y-18.4
X39.85Y-20.75
X50.7Y-31.6
X53.5Y-29.3
X53.5Y-33.9
X56.3Y-31.6
T2
X41.7Y-7.7
X44.24Y-7.7
T3
X9.2Y-26.85
X11.7Y-26.85
X14.2Y-26.85
T4
X26.69Y-5.651
X31.77Y-5.651
T5
X5.0Y-4.7
X5.0Y-95.3
X53.1Y-4.7
X53.1Y-95.3
T3
X4.069Y-72.789G85X4.069Y-71.889
G05
X8.619Y-67.339G85X9.519Y-67.339
G05
X8.619Y-69.839G85X9.519Y-69.839
G05
X8.619Y-74.839G85X9.519Y-74.839
G05
X8.619Y-77.339G85X9.519Y-77.339
G05
X26.951Y-17.037G85X25.951Y-17.037
G05
X26.951Y-19.577G85X25.951Y-19.577
G05
X26.951Y-22.117G85X25.951Y-22.117
G05
X38.051Y-16.937G85X37.051Y-16.937
G05
X38.051Y-19.477G85X37.051Y-19.477
G05
X38.051Y-22.017G85X37.051Y-22.017
G05
X48.951Y-17.037G85X47.951Y-17.037
G05
X48.951Y-19.577G85X47.951Y-19.577
G05
X48.951Y-22.117G85X47.951Y-22.117
G05
T0
M30
