%FSLAX45Y45*%
G04 Gerber Fmt 4.5, Leading zero omitted, Abs format (unit mm)*
G04 Created by KiCad (PCBNEW 5.1.12-84ad8e8a86~92~ubuntu20.04.1) date 2021-12-15 11:08:15*
%MOMM*%
%LPD*%
G01*
G04 APERTURE LIST*
%TA.AperFunction,Profile*%
%ADD10C,0.150000*%
%TD*%
%ADD11C,0.200000*%
%ADD12C,0.300000*%
G04 APERTURE END LIST*
D10*
X4285000Y-8019532D02*
G75*
G03*
X4285000Y-8019532I-1400000J0D01*
G01*
X0Y-10000000D02*
X0Y0D01*
X5770000Y-10000000D02*
X0Y-10000000D01*
X5770000Y0D02*
X5770000Y-10000000D01*
X0Y0D02*
X5770000Y0D01*
D11*
X170000Y-8460000D02*
X200000Y-8490000D01*
X200000Y-8460000D02*
X170000Y-8490000D01*
X400000Y-8170000D02*
X430000Y-8200000D01*
X430000Y-8170000D02*
X400000Y-8200000D01*
X400000Y-8750000D02*
X430000Y-8780000D01*
X430000Y-8750000D02*
X400000Y-8780000D01*
X1010000Y-1880000D02*
X1040000Y-1910000D01*
X1040000Y-1880000D02*
X1010000Y-1910000D01*
X1015000Y-2140000D02*
X1045000Y-2170000D01*
X1045000Y-2140000D02*
X1015000Y-2170000D01*
X1020000Y-2375000D02*
X1050000Y-2405000D01*
X1050000Y-2375000D02*
X1020000Y-2405000D01*
X1020000Y-2810000D02*
X1050000Y-2840000D01*
X1050000Y-2810000D02*
X1020000Y-2840000D01*
X1125000Y-1635000D02*
X1155000Y-1665000D01*
X1155000Y-1635000D02*
X1125000Y-1665000D01*
X1140000Y-3050000D02*
X1170000Y-3080000D01*
X1170000Y-3050000D02*
X1140000Y-3080000D01*
X1263130Y-1880370D02*
X1293130Y-1910370D01*
X1293130Y-1880370D02*
X1263130Y-1910370D01*
X1263130Y-2138434D02*
X1293130Y-2168434D01*
X1293130Y-2138434D02*
X1263130Y-2168434D01*
X1280000Y-2815000D02*
X1310000Y-2845000D01*
X1310000Y-2815000D02*
X1280000Y-2845000D01*
X1350000Y-1460000D02*
X1380000Y-1490000D01*
X1380000Y-1460000D02*
X1350000Y-1490000D01*
X1370000Y-2375000D02*
X1400000Y-2405000D01*
X1400000Y-2375000D02*
X1370000Y-2405000D01*
X1425000Y-3085000D02*
X1455000Y-3115000D01*
X1455000Y-3085000D02*
X1425000Y-3115000D01*
X1495000Y-2860000D02*
X1525000Y-2890000D01*
X1525000Y-2860000D02*
X1495000Y-2890000D01*
X1530000Y-1285000D02*
X1560000Y-1315000D01*
X1560000Y-1285000D02*
X1530000Y-1315000D01*
X1535164Y-1627640D02*
X1565164Y-1657640D01*
X1565164Y-1627640D02*
X1535164Y-1657640D01*
X1700000Y-1105000D02*
X1730000Y-1135000D01*
X1730000Y-1105000D02*
X1700000Y-1135000D01*
X1710000Y-1455000D02*
X1740000Y-1485000D01*
X1740000Y-1455000D02*
X1710000Y-1485000D01*
X1710000Y-3100000D02*
X1740000Y-3130000D01*
X1740000Y-3100000D02*
X1710000Y-3130000D01*
X1720000Y-2865000D02*
X1750000Y-2895000D01*
X1750000Y-2865000D02*
X1720000Y-2895000D01*
X1870000Y-1055000D02*
X1900000Y-1085000D01*
X1900000Y-1055000D02*
X1870000Y-1085000D01*
X1870000Y-1295000D02*
X1900000Y-1325000D01*
X1900000Y-1295000D02*
X1870000Y-1325000D01*
X1950000Y-3255000D02*
X1980000Y-3285000D01*
X1980000Y-3255000D02*
X1950000Y-3285000D01*
X1975000Y-3645000D02*
X2005000Y-3675000D01*
X2005000Y-3645000D02*
X1975000Y-3675000D01*
X2035000Y-2645000D02*
X2065000Y-2675000D01*
X2065000Y-2645000D02*
X2035000Y-2675000D01*
X2060000Y-2360000D02*
X2090000Y-2390000D01*
X2090000Y-2360000D02*
X2060000Y-2390000D01*
X2065000Y-2040000D02*
X2095000Y-2070000D01*
X2095000Y-2040000D02*
X2065000Y-2070000D01*
X2130000Y-3495000D02*
X2160000Y-3525000D01*
X2160000Y-3495000D02*
X2130000Y-3525000D01*
X2185000Y-1060000D02*
X2215000Y-1090000D01*
X2215000Y-1060000D02*
X2185000Y-1090000D01*
X2185000Y-1290000D02*
X2215000Y-1320000D01*
X2215000Y-1290000D02*
X2185000Y-1320000D01*
X2210000Y-1890000D02*
X2240000Y-1920000D01*
X2240000Y-1890000D02*
X2210000Y-1920000D01*
X2245000Y-3075000D02*
X2275000Y-3105000D01*
X2275000Y-3075000D02*
X2245000Y-3105000D01*
X2260000Y-3350000D02*
X2290000Y-3380000D01*
X2290000Y-3350000D02*
X2260000Y-3380000D01*
X2295000Y-2170000D02*
X2325000Y-2200000D01*
X2325000Y-2170000D02*
X2295000Y-2200000D01*
X2295000Y-2520000D02*
X2325000Y-2550000D01*
X2325000Y-2520000D02*
X2295000Y-2550000D01*
X2400000Y-1555000D02*
X2430000Y-1585000D01*
X2430000Y-1555000D02*
X2400000Y-1585000D01*
X2415000Y-1825000D02*
X2445000Y-1855000D01*
X2445000Y-1825000D02*
X2415000Y-1855000D01*
X2490000Y-1050000D02*
X2520000Y-1080000D01*
X2520000Y-1050000D02*
X2490000Y-1080000D01*
X2490000Y-1290000D02*
X2520000Y-1320000D01*
X2520000Y-1290000D02*
X2490000Y-1320000D01*
X2645000Y-3185000D02*
X2675000Y-3215000D01*
X2675000Y-3185000D02*
X2645000Y-3215000D01*
X2670000Y-2845000D02*
X2700000Y-2875000D01*
X2700000Y-2845000D02*
X2670000Y-2875000D01*
X2675000Y-845000D02*
X2705000Y-875000D01*
X2705000Y-845000D02*
X2675000Y-875000D01*
X2675000Y-1210000D02*
X2705000Y-1240000D01*
X2705000Y-1210000D02*
X2675000Y-1240000D01*
X2700000Y-3010000D02*
X2730000Y-3040000D01*
X2730000Y-3010000D02*
X2700000Y-3040000D01*
X2725000Y-2405000D02*
X2755000Y-2435000D01*
X2755000Y-2405000D02*
X2725000Y-2435000D01*
X2730000Y-2670000D02*
X2760000Y-2700000D01*
X2760000Y-2670000D02*
X2730000Y-2700000D01*
X2835000Y-3190000D02*
X2865000Y-3220000D01*
X2865000Y-3190000D02*
X2835000Y-3220000D01*
X2850000Y-1845000D02*
X2880000Y-1875000D01*
X2880000Y-1845000D02*
X2850000Y-1875000D01*
X2850000Y-2055000D02*
X2880000Y-2085000D01*
X2880000Y-2055000D02*
X2850000Y-2085000D01*
X2855000Y-1555000D02*
X2885000Y-1585000D01*
X2885000Y-1555000D02*
X2855000Y-1585000D01*
X2865000Y-1000000D02*
X2895000Y-1030000D01*
X2895000Y-1000000D02*
X2865000Y-1030000D01*
X2920000Y-350000D02*
X2950000Y-380000D01*
X2950000Y-350000D02*
X2920000Y-380000D01*
X2920000Y-615000D02*
X2950000Y-645000D01*
X2950000Y-615000D02*
X2920000Y-645000D01*
X2930000Y-2850000D02*
X2960000Y-2880000D01*
X2960000Y-2850000D02*
X2930000Y-2880000D01*
X2950000Y-2385000D02*
X2980000Y-2415000D01*
X2980000Y-2385000D02*
X2950000Y-2415000D01*
X3060000Y-3065000D02*
X3090000Y-3095000D01*
X3090000Y-3065000D02*
X3060000Y-3095000D01*
X3070000Y-2625000D02*
X3100000Y-2655000D01*
X3100000Y-2625000D02*
X3070000Y-2655000D01*
X3105000Y-775000D02*
X3135000Y-805000D01*
X3135000Y-775000D02*
X3105000Y-805000D01*
X3115000Y-2175000D02*
X3145000Y-2205000D01*
X3145000Y-2175000D02*
X3115000Y-2205000D01*
X3295000Y-2835000D02*
X3325000Y-2865000D01*
X3325000Y-2835000D02*
X3295000Y-2865000D01*
X3315000Y-2400000D02*
X3345000Y-2430000D01*
X3345000Y-2400000D02*
X3315000Y-2430000D01*
X3325000Y-1990000D02*
X3355000Y-2020000D01*
X3355000Y-1990000D02*
X3325000Y-2020000D01*
X3385000Y-730000D02*
X3415000Y-760000D01*
X3415000Y-730000D02*
X3385000Y-760000D01*
X3390000Y-340000D02*
X3420000Y-370000D01*
X3420000Y-340000D02*
X3390000Y-370000D01*
X3500000Y-1545000D02*
X3530000Y-1575000D01*
X3530000Y-1545000D02*
X3500000Y-1575000D01*
X3510000Y-1825000D02*
X3540000Y-1855000D01*
X3540000Y-1825000D02*
X3510000Y-1855000D01*
X3515000Y-2195000D02*
X3545000Y-2225000D01*
X3545000Y-2195000D02*
X3515000Y-2225000D01*
X3540000Y-2585000D02*
X3570000Y-2615000D01*
X3570000Y-2585000D02*
X3540000Y-2615000D01*
X3735000Y-2400000D02*
X3765000Y-2430000D01*
X3765000Y-2400000D02*
X3735000Y-2430000D01*
X3960000Y-2310000D02*
X3990000Y-2340000D01*
X3990000Y-2310000D02*
X3960000Y-2340000D01*
X3970000Y-1540000D02*
X4000000Y-1570000D01*
X4000000Y-1540000D02*
X3970000Y-1570000D01*
X3970000Y-1825000D02*
X4000000Y-1855000D01*
X4000000Y-1825000D02*
X3970000Y-1855000D01*
X3970000Y-2060000D02*
X4000000Y-2090000D01*
X4000000Y-2060000D02*
X3970000Y-2090000D01*
X5055000Y-3145000D02*
X5085000Y-3175000D01*
X5085000Y-3145000D02*
X5055000Y-3175000D01*
X5335000Y-2915000D02*
X5365000Y-2945000D01*
X5365000Y-2915000D02*
X5335000Y-2945000D01*
X5335000Y-3375000D02*
X5365000Y-3405000D01*
X5365000Y-3375000D02*
X5335000Y-3405000D01*
X5615000Y-3145000D02*
X5645000Y-3175000D01*
X5645000Y-3145000D02*
X5615000Y-3175000D01*
X4215000Y-770000D02*
G75*
G03*
X4215000Y-770000I-45000J0D01*
G01*
X4469000Y-770000D02*
G75*
G03*
X4469000Y-770000I-45000J0D01*
G01*
X406924Y-7183928D02*
X406924Y-7283928D01*
X356924Y-7233928D02*
X456924Y-7233928D01*
X446924Y-7278928D02*
X446924Y-7188928D01*
X366924Y-7278928D02*
X366924Y-7188928D01*
X446924Y-7188928D02*
G75*
G03*
X366924Y-7188928I-40000J0D01*
G01*
X366924Y-7278928D02*
G75*
G03*
X446924Y-7278928I40000J0D01*
G01*
X906924Y-6683928D02*
X906924Y-6783928D01*
X856924Y-6733928D02*
X956924Y-6733928D01*
X861924Y-6773928D02*
X951924Y-6773928D01*
X861924Y-6693928D02*
X951924Y-6693928D01*
X951924Y-6773928D02*
G75*
G03*
X951924Y-6693928I0J40000D01*
G01*
X861924Y-6693928D02*
G75*
G03*
X861924Y-6773928I0J-40000D01*
G01*
X906924Y-6933928D02*
X906924Y-7033928D01*
X856924Y-6983928D02*
X956924Y-6983928D01*
X861924Y-7023928D02*
X951924Y-7023928D01*
X861924Y-6943928D02*
X951924Y-6943928D01*
X951924Y-7023928D02*
G75*
G03*
X951924Y-6943928I0J40000D01*
G01*
X861924Y-6943928D02*
G75*
G03*
X861924Y-7023928I0J-40000D01*
G01*
X906924Y-7433928D02*
X906924Y-7533928D01*
X856924Y-7483928D02*
X956924Y-7483928D01*
X861924Y-7523928D02*
X951924Y-7523928D01*
X861924Y-7443928D02*
X951924Y-7443928D01*
X951924Y-7523928D02*
G75*
G03*
X951924Y-7443928I0J40000D01*
G01*
X861924Y-7443928D02*
G75*
G03*
X861924Y-7523928I0J-40000D01*
G01*
X906924Y-7683928D02*
X906924Y-7783928D01*
X856924Y-7733928D02*
X956924Y-7733928D01*
X861924Y-7773928D02*
X951924Y-7773928D01*
X861924Y-7693928D02*
X951924Y-7693928D01*
X951924Y-7773928D02*
G75*
G03*
X951924Y-7693928I0J40000D01*
G01*
X861924Y-7693928D02*
G75*
G03*
X861924Y-7773928I0J-40000D01*
G01*
X920000Y-2635000D02*
X920000Y-2735000D01*
X870000Y-2685000D02*
X970000Y-2685000D01*
X1170000Y-2635000D02*
X1170000Y-2735000D01*
X1120000Y-2685000D02*
X1220000Y-2685000D01*
X1420000Y-2635000D02*
X1420000Y-2735000D01*
X1370000Y-2685000D02*
X1470000Y-2685000D01*
X2645134Y-1653714D02*
X2645134Y-1753714D01*
X2595134Y-1703714D02*
X2695134Y-1703714D01*
X2695134Y-1663714D02*
X2595134Y-1663714D01*
X2695134Y-1743714D02*
X2595134Y-1743714D01*
X2595134Y-1663714D02*
G75*
G03*
X2595134Y-1743714I0J-40000D01*
G01*
X2695134Y-1743714D02*
G75*
G03*
X2695134Y-1663714I0J40000D01*
G01*
X2645134Y-1907714D02*
X2645134Y-2007714D01*
X2595134Y-1957714D02*
X2695134Y-1957714D01*
X2695134Y-1917714D02*
X2595134Y-1917714D01*
X2695134Y-1997714D02*
X2595134Y-1997714D01*
X2595134Y-1917714D02*
G75*
G03*
X2595134Y-1997714I0J-40000D01*
G01*
X2695134Y-1997714D02*
G75*
G03*
X2695134Y-1917714I0J40000D01*
G01*
X2645134Y-2161714D02*
X2645134Y-2261714D01*
X2595134Y-2211714D02*
X2695134Y-2211714D01*
X2695134Y-2171714D02*
X2595134Y-2171714D01*
X2695134Y-2251714D02*
X2595134Y-2251714D01*
X2595134Y-2171714D02*
G75*
G03*
X2595134Y-2251714I0J-40000D01*
G01*
X2695134Y-2251714D02*
G75*
G03*
X2695134Y-2171714I0J40000D01*
G01*
X3755134Y-1643714D02*
X3755134Y-1743714D01*
X3705134Y-1693714D02*
X3805134Y-1693714D01*
X3805134Y-1653714D02*
X3705134Y-1653714D01*
X3805134Y-1733714D02*
X3705134Y-1733714D01*
X3705134Y-1653714D02*
G75*
G03*
X3705134Y-1733714I0J-40000D01*
G01*
X3805134Y-1733714D02*
G75*
G03*
X3805134Y-1653714I0J40000D01*
G01*
X3755134Y-1897714D02*
X3755134Y-1997714D01*
X3705134Y-1947714D02*
X3805134Y-1947714D01*
X3805134Y-1907714D02*
X3705134Y-1907714D01*
X3805134Y-1987714D02*
X3705134Y-1987714D01*
X3705134Y-1907714D02*
G75*
G03*
X3705134Y-1987714I0J-40000D01*
G01*
X3805134Y-1987714D02*
G75*
G03*
X3805134Y-1907714I0J40000D01*
G01*
X3755134Y-2151714D02*
X3755134Y-2251714D01*
X3705134Y-2201714D02*
X3805134Y-2201714D01*
X3805134Y-2161714D02*
X3705134Y-2161714D01*
X3805134Y-2241714D02*
X3705134Y-2241714D01*
X3705134Y-2161714D02*
G75*
G03*
X3705134Y-2241714I0J-40000D01*
G01*
X3805134Y-2241714D02*
G75*
G03*
X3805134Y-2161714I0J40000D01*
G01*
X4845134Y-1653714D02*
X4845134Y-1753714D01*
X4795134Y-1703714D02*
X4895134Y-1703714D01*
X4895134Y-1663714D02*
X4795134Y-1663714D01*
X4895134Y-1743714D02*
X4795134Y-1743714D01*
X4795134Y-1663714D02*
G75*
G03*
X4795134Y-1743714I0J-40000D01*
G01*
X4895134Y-1743714D02*
G75*
G03*
X4895134Y-1663714I0J40000D01*
G01*
X4845134Y-1907714D02*
X4845134Y-2007714D01*
X4795134Y-1957714D02*
X4895134Y-1957714D01*
X4895134Y-1917714D02*
X4795134Y-1917714D01*
X4895134Y-1997714D02*
X4795134Y-1997714D01*
X4795134Y-1917714D02*
G75*
G03*
X4795134Y-1997714I0J-40000D01*
G01*
X4895134Y-1997714D02*
G75*
G03*
X4895134Y-1917714I0J40000D01*
G01*
X4845134Y-2161714D02*
X4845134Y-2261714D01*
X4795134Y-2211714D02*
X4895134Y-2211714D01*
X4895134Y-2171714D02*
X4795134Y-2171714D01*
X4895134Y-2251714D02*
X4795134Y-2251714D01*
X4795134Y-2171714D02*
G75*
G03*
X4795134Y-2251714I0J-40000D01*
G01*
X4895134Y-2251714D02*
G75*
G03*
X4895134Y-2171714I0J40000D01*
G01*
X2714996Y-611102D02*
X2714996Y-519178D01*
X2623072Y-519178D01*
X2623072Y-611102D01*
X2714996Y-611102D01*
X3222996Y-611102D02*
X3222996Y-519178D01*
X3131072Y-519178D01*
X3131072Y-611102D01*
X3222996Y-611102D01*
X500000Y-620000D02*
X650000Y-470000D01*
X500000Y-320000D01*
X350000Y-470000D01*
X500000Y-620000D01*
X500000Y-9680000D02*
X650000Y-9530000D01*
X500000Y-9380000D01*
X350000Y-9530000D01*
X500000Y-9680000D01*
X5310000Y-620000D02*
X5460000Y-470000D01*
X5310000Y-320000D01*
X5160000Y-470000D01*
X5310000Y-620000D01*
X5310000Y-9680000D02*
X5460000Y-9530000D01*
X5310000Y-9380000D01*
X5160000Y-9530000D01*
X5310000Y-9680000D01*
D12*
X278928Y-10473214D02*
X278928Y-10173214D01*
X350357Y-10173214D01*
X393214Y-10187500D01*
X421786Y-10216072D01*
X436071Y-10244643D01*
X450357Y-10301786D01*
X450357Y-10344643D01*
X436071Y-10401786D01*
X421786Y-10430357D01*
X393214Y-10458929D01*
X350357Y-10473214D01*
X278928Y-10473214D01*
X578928Y-10473214D02*
X578928Y-10273214D01*
X578928Y-10330357D02*
X593214Y-10301786D01*
X607500Y-10287500D01*
X636071Y-10273214D01*
X664643Y-10273214D01*
X764643Y-10473214D02*
X764643Y-10273214D01*
X764643Y-10173214D02*
X750357Y-10187500D01*
X764643Y-10201786D01*
X778928Y-10187500D01*
X764643Y-10173214D01*
X764643Y-10201786D01*
X950357Y-10473214D02*
X921786Y-10458929D01*
X907500Y-10430357D01*
X907500Y-10173214D01*
X1107500Y-10473214D02*
X1078928Y-10458929D01*
X1064643Y-10430357D01*
X1064643Y-10173214D01*
X1450357Y-10473214D02*
X1450357Y-10173214D01*
X1550357Y-10387500D01*
X1650357Y-10173214D01*
X1650357Y-10473214D01*
X1921786Y-10473214D02*
X1921786Y-10316072D01*
X1907500Y-10287500D01*
X1878928Y-10273214D01*
X1821786Y-10273214D01*
X1793214Y-10287500D01*
X1921786Y-10458929D02*
X1893214Y-10473214D01*
X1821786Y-10473214D01*
X1793214Y-10458929D01*
X1778928Y-10430357D01*
X1778928Y-10401786D01*
X1793214Y-10373214D01*
X1821786Y-10358929D01*
X1893214Y-10358929D01*
X1921786Y-10344643D01*
X2064643Y-10273214D02*
X2064643Y-10573214D01*
X2064643Y-10287500D02*
X2093214Y-10273214D01*
X2150357Y-10273214D01*
X2178928Y-10287500D01*
X2193214Y-10301786D01*
X2207500Y-10330357D01*
X2207500Y-10416072D01*
X2193214Y-10444643D01*
X2178928Y-10458929D01*
X2150357Y-10473214D01*
X2093214Y-10473214D01*
X2064643Y-10458929D01*
X2336071Y-10444643D02*
X2350357Y-10458929D01*
X2336071Y-10473214D01*
X2321786Y-10458929D01*
X2336071Y-10444643D01*
X2336071Y-10473214D01*
X2336071Y-10287500D02*
X2350357Y-10301786D01*
X2336071Y-10316072D01*
X2321786Y-10301786D01*
X2336071Y-10287500D01*
X2336071Y-10316072D01*
X-37500Y-10952500D02*
X-7500Y-10982500D01*
X-7500Y-10952500D02*
X-37500Y-10982500D01*
X336071Y-10803214D02*
X364643Y-10803214D01*
X393214Y-10817500D01*
X407500Y-10831786D01*
X421786Y-10860357D01*
X436071Y-10917500D01*
X436071Y-10988929D01*
X421786Y-11046072D01*
X407500Y-11074643D01*
X393214Y-11088929D01*
X364643Y-11103214D01*
X336071Y-11103214D01*
X307500Y-11088929D01*
X293214Y-11074643D01*
X278928Y-11046072D01*
X264643Y-10988929D01*
X264643Y-10917500D01*
X278928Y-10860357D01*
X293214Y-10831786D01*
X307500Y-10817500D01*
X336071Y-10803214D01*
X564643Y-11074643D02*
X578928Y-11088929D01*
X564643Y-11103214D01*
X550357Y-11088929D01*
X564643Y-11074643D01*
X564643Y-11103214D01*
X678928Y-10803214D02*
X864643Y-10803214D01*
X764643Y-10917500D01*
X807500Y-10917500D01*
X836071Y-10931786D01*
X850357Y-10946072D01*
X864643Y-10974643D01*
X864643Y-11046072D01*
X850357Y-11074643D01*
X836071Y-11088929D01*
X807500Y-11103214D01*
X721786Y-11103214D01*
X693214Y-11088929D01*
X678928Y-11074643D01*
X1050357Y-10803214D02*
X1078928Y-10803214D01*
X1107500Y-10817500D01*
X1121786Y-10831786D01*
X1136071Y-10860357D01*
X1150357Y-10917500D01*
X1150357Y-10988929D01*
X1136071Y-11046072D01*
X1121786Y-11074643D01*
X1107500Y-11088929D01*
X1078928Y-11103214D01*
X1050357Y-11103214D01*
X1021786Y-11088929D01*
X1007500Y-11074643D01*
X993214Y-11046072D01*
X978928Y-10988929D01*
X978928Y-10917500D01*
X993214Y-10860357D01*
X1007500Y-10831786D01*
X1021786Y-10817500D01*
X1050357Y-10803214D01*
X1336071Y-10803214D02*
X1364643Y-10803214D01*
X1393214Y-10817500D01*
X1407500Y-10831786D01*
X1421786Y-10860357D01*
X1436071Y-10917500D01*
X1436071Y-10988929D01*
X1421786Y-11046072D01*
X1407500Y-11074643D01*
X1393214Y-11088929D01*
X1364643Y-11103214D01*
X1336071Y-11103214D01*
X1307500Y-11088929D01*
X1293214Y-11074643D01*
X1278928Y-11046072D01*
X1264643Y-10988929D01*
X1264643Y-10917500D01*
X1278928Y-10860357D01*
X1293214Y-10831786D01*
X1307500Y-10817500D01*
X1336071Y-10803214D01*
X1564643Y-11103214D02*
X1564643Y-10903214D01*
X1564643Y-10931786D02*
X1578928Y-10917500D01*
X1607500Y-10903214D01*
X1650357Y-10903214D01*
X1678928Y-10917500D01*
X1693214Y-10946072D01*
X1693214Y-11103214D01*
X1693214Y-10946072D02*
X1707500Y-10917500D01*
X1736071Y-10903214D01*
X1778928Y-10903214D01*
X1807500Y-10917500D01*
X1821786Y-10946072D01*
X1821786Y-11103214D01*
X1964643Y-11103214D02*
X1964643Y-10903214D01*
X1964643Y-10931786D02*
X1978928Y-10917500D01*
X2007500Y-10903214D01*
X2050357Y-10903214D01*
X2078928Y-10917500D01*
X2093214Y-10946072D01*
X2093214Y-11103214D01*
X2093214Y-10946072D02*
X2107500Y-10917500D01*
X2136071Y-10903214D01*
X2178928Y-10903214D01*
X2207500Y-10917500D01*
X2221786Y-10946072D01*
X2221786Y-11103214D01*
X2807500Y-10788929D02*
X2550357Y-11174643D01*
X3193214Y-10803214D02*
X3221786Y-10803214D01*
X3250357Y-10817500D01*
X3264643Y-10831786D01*
X3278928Y-10860357D01*
X3293214Y-10917500D01*
X3293214Y-10988929D01*
X3278928Y-11046072D01*
X3264643Y-11074643D01*
X3250357Y-11088929D01*
X3221786Y-11103214D01*
X3193214Y-11103214D01*
X3164643Y-11088929D01*
X3150357Y-11074643D01*
X3136071Y-11046072D01*
X3121786Y-10988929D01*
X3121786Y-10917500D01*
X3136071Y-10860357D01*
X3150357Y-10831786D01*
X3164643Y-10817500D01*
X3193214Y-10803214D01*
X3421786Y-11074643D02*
X3436071Y-11088929D01*
X3421786Y-11103214D01*
X3407500Y-11088929D01*
X3421786Y-11074643D01*
X3421786Y-11103214D01*
X3621786Y-10803214D02*
X3650357Y-10803214D01*
X3678928Y-10817500D01*
X3693214Y-10831786D01*
X3707500Y-10860357D01*
X3721786Y-10917500D01*
X3721786Y-10988929D01*
X3707500Y-11046072D01*
X3693214Y-11074643D01*
X3678928Y-11088929D01*
X3650357Y-11103214D01*
X3621786Y-11103214D01*
X3593214Y-11088929D01*
X3578928Y-11074643D01*
X3564643Y-11046072D01*
X3550357Y-10988929D01*
X3550357Y-10917500D01*
X3564643Y-10860357D01*
X3578928Y-10831786D01*
X3593214Y-10817500D01*
X3621786Y-10803214D01*
X4007500Y-11103214D02*
X3836071Y-11103214D01*
X3921786Y-11103214D02*
X3921786Y-10803214D01*
X3893214Y-10846072D01*
X3864643Y-10874643D01*
X3836071Y-10888929D01*
X4293214Y-11103214D02*
X4121786Y-11103214D01*
X4207500Y-11103214D02*
X4207500Y-10803214D01*
X4178928Y-10846072D01*
X4150357Y-10874643D01*
X4121786Y-10888929D01*
X4464643Y-10931786D02*
X4436071Y-10917500D01*
X4421786Y-10903214D01*
X4407500Y-10874643D01*
X4407500Y-10860357D01*
X4421786Y-10831786D01*
X4436071Y-10817500D01*
X4464643Y-10803214D01*
X4521786Y-10803214D01*
X4550357Y-10817500D01*
X4564643Y-10831786D01*
X4578928Y-10860357D01*
X4578928Y-10874643D01*
X4564643Y-10903214D01*
X4550357Y-10917500D01*
X4521786Y-10931786D01*
X4464643Y-10931786D01*
X4436071Y-10946072D01*
X4421786Y-10960357D01*
X4407500Y-10988929D01*
X4407500Y-11046072D01*
X4421786Y-11074643D01*
X4436071Y-11088929D01*
X4464643Y-11103214D01*
X4521786Y-11103214D01*
X4550357Y-11088929D01*
X4564643Y-11074643D01*
X4578928Y-11046072D01*
X4578928Y-10988929D01*
X4564643Y-10960357D01*
X4550357Y-10946072D01*
X4521786Y-10931786D01*
X4693214Y-10803214D02*
X4693214Y-10860357D01*
X4807500Y-10803214D02*
X4807500Y-10860357D01*
X5250357Y-11217500D02*
X5236071Y-11203214D01*
X5207500Y-11160357D01*
X5193214Y-11131786D01*
X5178928Y-11088929D01*
X5164643Y-11017500D01*
X5164643Y-10960357D01*
X5178928Y-10888929D01*
X5193214Y-10846072D01*
X5207500Y-10817500D01*
X5236071Y-10774643D01*
X5250357Y-10760357D01*
X5336071Y-10803214D02*
X5536071Y-10803214D01*
X5407500Y-11103214D01*
X5664643Y-11103214D02*
X5721786Y-11103214D01*
X5750357Y-11088929D01*
X5764643Y-11074643D01*
X5793214Y-11031786D01*
X5807500Y-10974643D01*
X5807500Y-10860357D01*
X5793214Y-10831786D01*
X5778928Y-10817500D01*
X5750357Y-10803214D01*
X5693214Y-10803214D01*
X5664643Y-10817500D01*
X5650357Y-10831786D01*
X5636071Y-10860357D01*
X5636071Y-10931786D01*
X5650357Y-10960357D01*
X5664643Y-10974643D01*
X5693214Y-10988929D01*
X5750357Y-10988929D01*
X5778928Y-10974643D01*
X5793214Y-10960357D01*
X5807500Y-10931786D01*
X6164643Y-11103214D02*
X6164643Y-10803214D01*
X6293214Y-11103214D02*
X6293214Y-10946072D01*
X6278928Y-10917500D01*
X6250357Y-10903214D01*
X6207500Y-10903214D01*
X6178928Y-10917500D01*
X6164643Y-10931786D01*
X6478928Y-11103214D02*
X6450357Y-11088929D01*
X6436071Y-11074643D01*
X6421786Y-11046072D01*
X6421786Y-10960357D01*
X6436071Y-10931786D01*
X6450357Y-10917500D01*
X6478928Y-10903214D01*
X6521786Y-10903214D01*
X6550357Y-10917500D01*
X6564643Y-10931786D01*
X6578928Y-10960357D01*
X6578928Y-11046072D01*
X6564643Y-11074643D01*
X6550357Y-11088929D01*
X6521786Y-11103214D01*
X6478928Y-11103214D01*
X6750357Y-11103214D02*
X6721786Y-11088929D01*
X6707500Y-11060357D01*
X6707500Y-10803214D01*
X6978928Y-11088929D02*
X6950357Y-11103214D01*
X6893214Y-11103214D01*
X6864643Y-11088929D01*
X6850357Y-11060357D01*
X6850357Y-10946072D01*
X6864643Y-10917500D01*
X6893214Y-10903214D01*
X6950357Y-10903214D01*
X6978928Y-10917500D01*
X6993214Y-10946072D01*
X6993214Y-10974643D01*
X6850357Y-11003214D01*
X7107500Y-11088929D02*
X7136071Y-11103214D01*
X7193214Y-11103214D01*
X7221786Y-11088929D01*
X7236071Y-11060357D01*
X7236071Y-11046072D01*
X7221786Y-11017500D01*
X7193214Y-11003214D01*
X7150357Y-11003214D01*
X7121786Y-10988929D01*
X7107500Y-10960357D01*
X7107500Y-10946072D01*
X7121786Y-10917500D01*
X7150357Y-10903214D01*
X7193214Y-10903214D01*
X7221786Y-10917500D01*
X7336071Y-11217500D02*
X7350357Y-11203214D01*
X7378928Y-11160357D01*
X7393214Y-11131786D01*
X7407500Y-11088929D01*
X7421786Y-11017500D01*
X7421786Y-10960357D01*
X7407500Y-10888929D01*
X7393214Y-10846072D01*
X7378928Y-10817500D01*
X7350357Y-10774643D01*
X7336071Y-10760357D01*
X-7500Y-11363500D02*
G75*
G03*
X-7500Y-11363500I-45000J0D01*
G01*
X336071Y-11199214D02*
X364643Y-11199214D01*
X393214Y-11213500D01*
X407500Y-11227786D01*
X421786Y-11256357D01*
X436071Y-11313500D01*
X436071Y-11384929D01*
X421786Y-11442071D01*
X407500Y-11470643D01*
X393214Y-11484929D01*
X364643Y-11499214D01*
X336071Y-11499214D01*
X307500Y-11484929D01*
X293214Y-11470643D01*
X278928Y-11442071D01*
X264643Y-11384929D01*
X264643Y-11313500D01*
X278928Y-11256357D01*
X293214Y-11227786D01*
X307500Y-11213500D01*
X336071Y-11199214D01*
X564643Y-11470643D02*
X578928Y-11484929D01*
X564643Y-11499214D01*
X550357Y-11484929D01*
X564643Y-11470643D01*
X564643Y-11499214D01*
X721786Y-11499214D02*
X778928Y-11499214D01*
X807500Y-11484929D01*
X821786Y-11470643D01*
X850357Y-11427786D01*
X864643Y-11370643D01*
X864643Y-11256357D01*
X850357Y-11227786D01*
X836071Y-11213500D01*
X807500Y-11199214D01*
X750357Y-11199214D01*
X721786Y-11213500D01*
X707500Y-11227786D01*
X693214Y-11256357D01*
X693214Y-11327786D01*
X707500Y-11356357D01*
X721786Y-11370643D01*
X750357Y-11384929D01*
X807500Y-11384929D01*
X836071Y-11370643D01*
X850357Y-11356357D01*
X864643Y-11327786D01*
X1050357Y-11199214D02*
X1078928Y-11199214D01*
X1107500Y-11213500D01*
X1121786Y-11227786D01*
X1136071Y-11256357D01*
X1150357Y-11313500D01*
X1150357Y-11384929D01*
X1136071Y-11442071D01*
X1121786Y-11470643D01*
X1107500Y-11484929D01*
X1078928Y-11499214D01*
X1050357Y-11499214D01*
X1021786Y-11484929D01*
X1007500Y-11470643D01*
X993214Y-11442071D01*
X978928Y-11384929D01*
X978928Y-11313500D01*
X993214Y-11256357D01*
X1007500Y-11227786D01*
X1021786Y-11213500D01*
X1050357Y-11199214D01*
X1336071Y-11199214D02*
X1364643Y-11199214D01*
X1393214Y-11213500D01*
X1407500Y-11227786D01*
X1421786Y-11256357D01*
X1436071Y-11313500D01*
X1436071Y-11384929D01*
X1421786Y-11442071D01*
X1407500Y-11470643D01*
X1393214Y-11484929D01*
X1364643Y-11499214D01*
X1336071Y-11499214D01*
X1307500Y-11484929D01*
X1293214Y-11470643D01*
X1278928Y-11442071D01*
X1264643Y-11384929D01*
X1264643Y-11313500D01*
X1278928Y-11256357D01*
X1293214Y-11227786D01*
X1307500Y-11213500D01*
X1336071Y-11199214D01*
X1564643Y-11499214D02*
X1564643Y-11299214D01*
X1564643Y-11327786D02*
X1578928Y-11313500D01*
X1607500Y-11299214D01*
X1650357Y-11299214D01*
X1678928Y-11313500D01*
X1693214Y-11342071D01*
X1693214Y-11499214D01*
X1693214Y-11342071D02*
X1707500Y-11313500D01*
X1736071Y-11299214D01*
X1778928Y-11299214D01*
X1807500Y-11313500D01*
X1821786Y-11342071D01*
X1821786Y-11499214D01*
X1964643Y-11499214D02*
X1964643Y-11299214D01*
X1964643Y-11327786D02*
X1978928Y-11313500D01*
X2007500Y-11299214D01*
X2050357Y-11299214D01*
X2078928Y-11313500D01*
X2093214Y-11342071D01*
X2093214Y-11499214D01*
X2093214Y-11342071D02*
X2107500Y-11313500D01*
X2136071Y-11299214D01*
X2178928Y-11299214D01*
X2207500Y-11313500D01*
X2221786Y-11342071D01*
X2221786Y-11499214D01*
X2807500Y-11184929D02*
X2550357Y-11570643D01*
X3193214Y-11199214D02*
X3221786Y-11199214D01*
X3250357Y-11213500D01*
X3264643Y-11227786D01*
X3278928Y-11256357D01*
X3293214Y-11313500D01*
X3293214Y-11384929D01*
X3278928Y-11442071D01*
X3264643Y-11470643D01*
X3250357Y-11484929D01*
X3221786Y-11499214D01*
X3193214Y-11499214D01*
X3164643Y-11484929D01*
X3150357Y-11470643D01*
X3136071Y-11442071D01*
X3121786Y-11384929D01*
X3121786Y-11313500D01*
X3136071Y-11256357D01*
X3150357Y-11227786D01*
X3164643Y-11213500D01*
X3193214Y-11199214D01*
X3421786Y-11470643D02*
X3436071Y-11484929D01*
X3421786Y-11499214D01*
X3407500Y-11484929D01*
X3421786Y-11470643D01*
X3421786Y-11499214D01*
X3621786Y-11199214D02*
X3650357Y-11199214D01*
X3678928Y-11213500D01*
X3693214Y-11227786D01*
X3707500Y-11256357D01*
X3721786Y-11313500D01*
X3721786Y-11384929D01*
X3707500Y-11442071D01*
X3693214Y-11470643D01*
X3678928Y-11484929D01*
X3650357Y-11499214D01*
X3621786Y-11499214D01*
X3593214Y-11484929D01*
X3578928Y-11470643D01*
X3564643Y-11442071D01*
X3550357Y-11384929D01*
X3550357Y-11313500D01*
X3564643Y-11256357D01*
X3578928Y-11227786D01*
X3593214Y-11213500D01*
X3621786Y-11199214D01*
X3821786Y-11199214D02*
X4007500Y-11199214D01*
X3907500Y-11313500D01*
X3950357Y-11313500D01*
X3978928Y-11327786D01*
X3993214Y-11342071D01*
X4007500Y-11370643D01*
X4007500Y-11442071D01*
X3993214Y-11470643D01*
X3978928Y-11484929D01*
X3950357Y-11499214D01*
X3864643Y-11499214D01*
X3836071Y-11484929D01*
X3821786Y-11470643D01*
X4278928Y-11199214D02*
X4136071Y-11199214D01*
X4121786Y-11342071D01*
X4136071Y-11327786D01*
X4164643Y-11313500D01*
X4236071Y-11313500D01*
X4264643Y-11327786D01*
X4278928Y-11342071D01*
X4293214Y-11370643D01*
X4293214Y-11442071D01*
X4278928Y-11470643D01*
X4264643Y-11484929D01*
X4236071Y-11499214D01*
X4164643Y-11499214D01*
X4136071Y-11484929D01*
X4121786Y-11470643D01*
X4550357Y-11299214D02*
X4550357Y-11499214D01*
X4478928Y-11184929D02*
X4407500Y-11399214D01*
X4593214Y-11399214D01*
X4693214Y-11199214D02*
X4693214Y-11256357D01*
X4807500Y-11199214D02*
X4807500Y-11256357D01*
X5250357Y-11613500D02*
X5236071Y-11599214D01*
X5207500Y-11556357D01*
X5193214Y-11527786D01*
X5178928Y-11484929D01*
X5164643Y-11413500D01*
X5164643Y-11356357D01*
X5178928Y-11284929D01*
X5193214Y-11242071D01*
X5207500Y-11213500D01*
X5236071Y-11170643D01*
X5250357Y-11156357D01*
X5350357Y-11227786D02*
X5364643Y-11213500D01*
X5393214Y-11199214D01*
X5464643Y-11199214D01*
X5493214Y-11213500D01*
X5507500Y-11227786D01*
X5521786Y-11256357D01*
X5521786Y-11284929D01*
X5507500Y-11327786D01*
X5336071Y-11499214D01*
X5521786Y-11499214D01*
X5878928Y-11499214D02*
X5878928Y-11199214D01*
X6007500Y-11499214D02*
X6007500Y-11342071D01*
X5993214Y-11313500D01*
X5964643Y-11299214D01*
X5921786Y-11299214D01*
X5893214Y-11313500D01*
X5878928Y-11327786D01*
X6193214Y-11499214D02*
X6164643Y-11484929D01*
X6150357Y-11470643D01*
X6136071Y-11442071D01*
X6136071Y-11356357D01*
X6150357Y-11327786D01*
X6164643Y-11313500D01*
X6193214Y-11299214D01*
X6236071Y-11299214D01*
X6264643Y-11313500D01*
X6278928Y-11327786D01*
X6293214Y-11356357D01*
X6293214Y-11442071D01*
X6278928Y-11470643D01*
X6264643Y-11484929D01*
X6236071Y-11499214D01*
X6193214Y-11499214D01*
X6464643Y-11499214D02*
X6436071Y-11484929D01*
X6421786Y-11456357D01*
X6421786Y-11199214D01*
X6693214Y-11484929D02*
X6664643Y-11499214D01*
X6607500Y-11499214D01*
X6578928Y-11484929D01*
X6564643Y-11456357D01*
X6564643Y-11342071D01*
X6578928Y-11313500D01*
X6607500Y-11299214D01*
X6664643Y-11299214D01*
X6693214Y-11313500D01*
X6707500Y-11342071D01*
X6707500Y-11370643D01*
X6564643Y-11399214D01*
X6821786Y-11484929D02*
X6850357Y-11499214D01*
X6907500Y-11499214D01*
X6936071Y-11484929D01*
X6950357Y-11456357D01*
X6950357Y-11442071D01*
X6936071Y-11413500D01*
X6907500Y-11399214D01*
X6864643Y-11399214D01*
X6836071Y-11384929D01*
X6821786Y-11356357D01*
X6821786Y-11342071D01*
X6836071Y-11313500D01*
X6864643Y-11299214D01*
X6907500Y-11299214D01*
X6936071Y-11313500D01*
X7050357Y-11613500D02*
X7064643Y-11599214D01*
X7093214Y-11556357D01*
X7107500Y-11527786D01*
X7121786Y-11484929D01*
X7136071Y-11413500D01*
X7136071Y-11356357D01*
X7121786Y-11284929D01*
X7107500Y-11242071D01*
X7093214Y-11213500D01*
X7064643Y-11170643D01*
X7050357Y-11156357D01*
X-57500Y-11709500D02*
X-57500Y-11809500D01*
X-107500Y-11759500D02*
X-7500Y-11759500D01*
X436071Y-11895214D02*
X264643Y-11895214D01*
X350357Y-11895214D02*
X350357Y-11595214D01*
X321786Y-11638071D01*
X293214Y-11666643D01*
X264643Y-11680929D01*
X564643Y-11866643D02*
X578928Y-11880929D01*
X564643Y-11895214D01*
X550357Y-11880929D01*
X564643Y-11866643D01*
X564643Y-11895214D01*
X764643Y-11595214D02*
X793214Y-11595214D01*
X821786Y-11609500D01*
X836071Y-11623786D01*
X850357Y-11652357D01*
X864643Y-11709500D01*
X864643Y-11780929D01*
X850357Y-11838071D01*
X836071Y-11866643D01*
X821786Y-11880929D01*
X793214Y-11895214D01*
X764643Y-11895214D01*
X736071Y-11880929D01*
X721786Y-11866643D01*
X707500Y-11838071D01*
X693214Y-11780929D01*
X693214Y-11709500D01*
X707500Y-11652357D01*
X721786Y-11623786D01*
X736071Y-11609500D01*
X764643Y-11595214D01*
X1050357Y-11595214D02*
X1078928Y-11595214D01*
X1107500Y-11609500D01*
X1121786Y-11623786D01*
X1136071Y-11652357D01*
X1150357Y-11709500D01*
X1150357Y-11780929D01*
X1136071Y-11838071D01*
X1121786Y-11866643D01*
X1107500Y-11880929D01*
X1078928Y-11895214D01*
X1050357Y-11895214D01*
X1021786Y-11880929D01*
X1007500Y-11866643D01*
X993214Y-11838071D01*
X978928Y-11780929D01*
X978928Y-11709500D01*
X993214Y-11652357D01*
X1007500Y-11623786D01*
X1021786Y-11609500D01*
X1050357Y-11595214D01*
X1336071Y-11595214D02*
X1364643Y-11595214D01*
X1393214Y-11609500D01*
X1407500Y-11623786D01*
X1421786Y-11652357D01*
X1436071Y-11709500D01*
X1436071Y-11780929D01*
X1421786Y-11838071D01*
X1407500Y-11866643D01*
X1393214Y-11880929D01*
X1364643Y-11895214D01*
X1336071Y-11895214D01*
X1307500Y-11880929D01*
X1293214Y-11866643D01*
X1278928Y-11838071D01*
X1264643Y-11780929D01*
X1264643Y-11709500D01*
X1278928Y-11652357D01*
X1293214Y-11623786D01*
X1307500Y-11609500D01*
X1336071Y-11595214D01*
X1564643Y-11895214D02*
X1564643Y-11695214D01*
X1564643Y-11723786D02*
X1578928Y-11709500D01*
X1607500Y-11695214D01*
X1650357Y-11695214D01*
X1678928Y-11709500D01*
X1693214Y-11738071D01*
X1693214Y-11895214D01*
X1693214Y-11738071D02*
X1707500Y-11709500D01*
X1736071Y-11695214D01*
X1778928Y-11695214D01*
X1807500Y-11709500D01*
X1821786Y-11738071D01*
X1821786Y-11895214D01*
X1964643Y-11895214D02*
X1964643Y-11695214D01*
X1964643Y-11723786D02*
X1978928Y-11709500D01*
X2007500Y-11695214D01*
X2050357Y-11695214D01*
X2078928Y-11709500D01*
X2093214Y-11738071D01*
X2093214Y-11895214D01*
X2093214Y-11738071D02*
X2107500Y-11709500D01*
X2136071Y-11695214D01*
X2178928Y-11695214D01*
X2207500Y-11709500D01*
X2221786Y-11738071D01*
X2221786Y-11895214D01*
X2807500Y-11580929D02*
X2550357Y-11966643D01*
X3193214Y-11595214D02*
X3221786Y-11595214D01*
X3250357Y-11609500D01*
X3264643Y-11623786D01*
X3278928Y-11652357D01*
X3293214Y-11709500D01*
X3293214Y-11780929D01*
X3278928Y-11838071D01*
X3264643Y-11866643D01*
X3250357Y-11880929D01*
X3221786Y-11895214D01*
X3193214Y-11895214D01*
X3164643Y-11880929D01*
X3150357Y-11866643D01*
X3136071Y-11838071D01*
X3121786Y-11780929D01*
X3121786Y-11709500D01*
X3136071Y-11652357D01*
X3150357Y-11623786D01*
X3164643Y-11609500D01*
X3193214Y-11595214D01*
X3421786Y-11866643D02*
X3436071Y-11880929D01*
X3421786Y-11895214D01*
X3407500Y-11880929D01*
X3421786Y-11866643D01*
X3421786Y-11895214D01*
X3621786Y-11595214D02*
X3650357Y-11595214D01*
X3678928Y-11609500D01*
X3693214Y-11623786D01*
X3707500Y-11652357D01*
X3721786Y-11709500D01*
X3721786Y-11780929D01*
X3707500Y-11838071D01*
X3693214Y-11866643D01*
X3678928Y-11880929D01*
X3650357Y-11895214D01*
X3621786Y-11895214D01*
X3593214Y-11880929D01*
X3578928Y-11866643D01*
X3564643Y-11838071D01*
X3550357Y-11780929D01*
X3550357Y-11709500D01*
X3564643Y-11652357D01*
X3578928Y-11623786D01*
X3593214Y-11609500D01*
X3621786Y-11595214D01*
X3821786Y-11595214D02*
X4007500Y-11595214D01*
X3907500Y-11709500D01*
X3950357Y-11709500D01*
X3978928Y-11723786D01*
X3993214Y-11738071D01*
X4007500Y-11766643D01*
X4007500Y-11838071D01*
X3993214Y-11866643D01*
X3978928Y-11880929D01*
X3950357Y-11895214D01*
X3864643Y-11895214D01*
X3836071Y-11880929D01*
X3821786Y-11866643D01*
X4150357Y-11895214D02*
X4207500Y-11895214D01*
X4236071Y-11880929D01*
X4250357Y-11866643D01*
X4278928Y-11823786D01*
X4293214Y-11766643D01*
X4293214Y-11652357D01*
X4278928Y-11623786D01*
X4264643Y-11609500D01*
X4236071Y-11595214D01*
X4178928Y-11595214D01*
X4150357Y-11609500D01*
X4136071Y-11623786D01*
X4121786Y-11652357D01*
X4121786Y-11723786D01*
X4136071Y-11752357D01*
X4150357Y-11766643D01*
X4178928Y-11780929D01*
X4236071Y-11780929D01*
X4264643Y-11766643D01*
X4278928Y-11752357D01*
X4293214Y-11723786D01*
X4550357Y-11695214D02*
X4550357Y-11895214D01*
X4478928Y-11580929D02*
X4407500Y-11795214D01*
X4593214Y-11795214D01*
X4693214Y-11595214D02*
X4693214Y-11652357D01*
X4807500Y-11595214D02*
X4807500Y-11652357D01*
X5250357Y-12009500D02*
X5236071Y-11995214D01*
X5207500Y-11952357D01*
X5193214Y-11923786D01*
X5178928Y-11880929D01*
X5164643Y-11809500D01*
X5164643Y-11752357D01*
X5178928Y-11680929D01*
X5193214Y-11638071D01*
X5207500Y-11609500D01*
X5236071Y-11566643D01*
X5250357Y-11552357D01*
X5336071Y-11595214D02*
X5521786Y-11595214D01*
X5421786Y-11709500D01*
X5464643Y-11709500D01*
X5493214Y-11723786D01*
X5507500Y-11738071D01*
X5521786Y-11766643D01*
X5521786Y-11838071D01*
X5507500Y-11866643D01*
X5493214Y-11880929D01*
X5464643Y-11895214D01*
X5378928Y-11895214D01*
X5350357Y-11880929D01*
X5336071Y-11866643D01*
X5878928Y-11895214D02*
X5878928Y-11595214D01*
X6007500Y-11895214D02*
X6007500Y-11738071D01*
X5993214Y-11709500D01*
X5964643Y-11695214D01*
X5921786Y-11695214D01*
X5893214Y-11709500D01*
X5878928Y-11723786D01*
X6193214Y-11895214D02*
X6164643Y-11880929D01*
X6150357Y-11866643D01*
X6136071Y-11838071D01*
X6136071Y-11752357D01*
X6150357Y-11723786D01*
X6164643Y-11709500D01*
X6193214Y-11695214D01*
X6236071Y-11695214D01*
X6264643Y-11709500D01*
X6278928Y-11723786D01*
X6293214Y-11752357D01*
X6293214Y-11838071D01*
X6278928Y-11866643D01*
X6264643Y-11880929D01*
X6236071Y-11895214D01*
X6193214Y-11895214D01*
X6464643Y-11895214D02*
X6436071Y-11880929D01*
X6421786Y-11852357D01*
X6421786Y-11595214D01*
X6693214Y-11880929D02*
X6664643Y-11895214D01*
X6607500Y-11895214D01*
X6578928Y-11880929D01*
X6564643Y-11852357D01*
X6564643Y-11738071D01*
X6578928Y-11709500D01*
X6607500Y-11695214D01*
X6664643Y-11695214D01*
X6693214Y-11709500D01*
X6707500Y-11738071D01*
X6707500Y-11766643D01*
X6564643Y-11795214D01*
X6821786Y-11880929D02*
X6850357Y-11895214D01*
X6907500Y-11895214D01*
X6936071Y-11880929D01*
X6950357Y-11852357D01*
X6950357Y-11838071D01*
X6936071Y-11809500D01*
X6907500Y-11795214D01*
X6864643Y-11795214D01*
X6836071Y-11780929D01*
X6821786Y-11752357D01*
X6821786Y-11738071D01*
X6836071Y-11709500D01*
X6864643Y-11695214D01*
X6907500Y-11695214D01*
X6936071Y-11709500D01*
X7307500Y-11780929D02*
X7536071Y-11780929D01*
X7421786Y-11895214D02*
X7421786Y-11666643D01*
X8064643Y-11895214D02*
X7893214Y-11895214D01*
X7978928Y-11895214D02*
X7978928Y-11595214D01*
X7950357Y-11638071D01*
X7921786Y-11666643D01*
X7893214Y-11680929D01*
X8321786Y-11695214D02*
X8321786Y-11895214D01*
X8250357Y-11580929D02*
X8178928Y-11795214D01*
X8364643Y-11795214D01*
X8693214Y-11880929D02*
X8721786Y-11895214D01*
X8778928Y-11895214D01*
X8807500Y-11880929D01*
X8821786Y-11852357D01*
X8821786Y-11838071D01*
X8807500Y-11809500D01*
X8778928Y-11795214D01*
X8736071Y-11795214D01*
X8707500Y-11780929D01*
X8693214Y-11752357D01*
X8693214Y-11738071D01*
X8707500Y-11709500D01*
X8736071Y-11695214D01*
X8778928Y-11695214D01*
X8807500Y-11709500D01*
X8993214Y-11895214D02*
X8964643Y-11880929D01*
X8950357Y-11852357D01*
X8950357Y-11595214D01*
X9150357Y-11895214D02*
X9121786Y-11880929D01*
X9107500Y-11866643D01*
X9093214Y-11838071D01*
X9093214Y-11752357D01*
X9107500Y-11723786D01*
X9121786Y-11709500D01*
X9150357Y-11695214D01*
X9193214Y-11695214D01*
X9221786Y-11709500D01*
X9236071Y-11723786D01*
X9250357Y-11752357D01*
X9250357Y-11838071D01*
X9236071Y-11866643D01*
X9221786Y-11880929D01*
X9193214Y-11895214D01*
X9150357Y-11895214D01*
X9336071Y-11695214D02*
X9450357Y-11695214D01*
X9378928Y-11595214D02*
X9378928Y-11852357D01*
X9393214Y-11880929D01*
X9421786Y-11895214D01*
X9450357Y-11895214D01*
X9536071Y-11880929D02*
X9564643Y-11895214D01*
X9621786Y-11895214D01*
X9650357Y-11880929D01*
X9664643Y-11852357D01*
X9664643Y-11838071D01*
X9650357Y-11809500D01*
X9621786Y-11795214D01*
X9578928Y-11795214D01*
X9550357Y-11780929D01*
X9536071Y-11752357D01*
X9536071Y-11738071D01*
X9550357Y-11709500D01*
X9578928Y-11695214D01*
X9621786Y-11695214D01*
X9650357Y-11709500D01*
X9764643Y-12009500D02*
X9778928Y-11995214D01*
X9807500Y-11952357D01*
X9821786Y-11923786D01*
X9836071Y-11880929D01*
X9850357Y-11809500D01*
X9850357Y-11752357D01*
X9836071Y-11680929D01*
X9821786Y-11638071D01*
X9807500Y-11609500D01*
X9778928Y-11566643D01*
X9764643Y-11552357D01*
X-26538Y-12201462D02*
X-26538Y-12109538D01*
X-118462Y-12109538D01*
X-118462Y-12201462D01*
X-26538Y-12201462D01*
X436071Y-12291214D02*
X264643Y-12291214D01*
X350357Y-12291214D02*
X350357Y-11991214D01*
X321786Y-12034071D01*
X293214Y-12062643D01*
X264643Y-12076929D01*
X564643Y-12262643D02*
X578928Y-12276929D01*
X564643Y-12291214D01*
X550357Y-12276929D01*
X564643Y-12262643D01*
X564643Y-12291214D01*
X678928Y-11991214D02*
X864643Y-11991214D01*
X764643Y-12105500D01*
X807500Y-12105500D01*
X836071Y-12119786D01*
X850357Y-12134071D01*
X864643Y-12162643D01*
X864643Y-12234071D01*
X850357Y-12262643D01*
X836071Y-12276929D01*
X807500Y-12291214D01*
X721786Y-12291214D01*
X693214Y-12276929D01*
X678928Y-12262643D01*
X1050357Y-11991214D02*
X1078928Y-11991214D01*
X1107500Y-12005500D01*
X1121786Y-12019786D01*
X1136071Y-12048357D01*
X1150357Y-12105500D01*
X1150357Y-12176929D01*
X1136071Y-12234071D01*
X1121786Y-12262643D01*
X1107500Y-12276929D01*
X1078928Y-12291214D01*
X1050357Y-12291214D01*
X1021786Y-12276929D01*
X1007500Y-12262643D01*
X993214Y-12234071D01*
X978928Y-12176929D01*
X978928Y-12105500D01*
X993214Y-12048357D01*
X1007500Y-12019786D01*
X1021786Y-12005500D01*
X1050357Y-11991214D01*
X1336071Y-11991214D02*
X1364643Y-11991214D01*
X1393214Y-12005500D01*
X1407500Y-12019786D01*
X1421786Y-12048357D01*
X1436071Y-12105500D01*
X1436071Y-12176929D01*
X1421786Y-12234071D01*
X1407500Y-12262643D01*
X1393214Y-12276929D01*
X1364643Y-12291214D01*
X1336071Y-12291214D01*
X1307500Y-12276929D01*
X1293214Y-12262643D01*
X1278928Y-12234071D01*
X1264643Y-12176929D01*
X1264643Y-12105500D01*
X1278928Y-12048357D01*
X1293214Y-12019786D01*
X1307500Y-12005500D01*
X1336071Y-11991214D01*
X1564643Y-12291214D02*
X1564643Y-12091214D01*
X1564643Y-12119786D02*
X1578928Y-12105500D01*
X1607500Y-12091214D01*
X1650357Y-12091214D01*
X1678928Y-12105500D01*
X1693214Y-12134071D01*
X1693214Y-12291214D01*
X1693214Y-12134071D02*
X1707500Y-12105500D01*
X1736071Y-12091214D01*
X1778928Y-12091214D01*
X1807500Y-12105500D01*
X1821786Y-12134071D01*
X1821786Y-12291214D01*
X1964643Y-12291214D02*
X1964643Y-12091214D01*
X1964643Y-12119786D02*
X1978928Y-12105500D01*
X2007500Y-12091214D01*
X2050357Y-12091214D01*
X2078928Y-12105500D01*
X2093214Y-12134071D01*
X2093214Y-12291214D01*
X2093214Y-12134071D02*
X2107500Y-12105500D01*
X2136071Y-12091214D01*
X2178928Y-12091214D01*
X2207500Y-12105500D01*
X2221786Y-12134071D01*
X2221786Y-12291214D01*
X2807500Y-11976929D02*
X2550357Y-12362643D01*
X3193214Y-11991214D02*
X3221786Y-11991214D01*
X3250357Y-12005500D01*
X3264643Y-12019786D01*
X3278928Y-12048357D01*
X3293214Y-12105500D01*
X3293214Y-12176929D01*
X3278928Y-12234071D01*
X3264643Y-12262643D01*
X3250357Y-12276929D01*
X3221786Y-12291214D01*
X3193214Y-12291214D01*
X3164643Y-12276929D01*
X3150357Y-12262643D01*
X3136071Y-12234071D01*
X3121786Y-12176929D01*
X3121786Y-12105500D01*
X3136071Y-12048357D01*
X3150357Y-12019786D01*
X3164643Y-12005500D01*
X3193214Y-11991214D01*
X3421786Y-12262643D02*
X3436071Y-12276929D01*
X3421786Y-12291214D01*
X3407500Y-12276929D01*
X3421786Y-12262643D01*
X3421786Y-12291214D01*
X3621786Y-11991214D02*
X3650357Y-11991214D01*
X3678928Y-12005500D01*
X3693214Y-12019786D01*
X3707500Y-12048357D01*
X3721786Y-12105500D01*
X3721786Y-12176929D01*
X3707500Y-12234071D01*
X3693214Y-12262643D01*
X3678928Y-12276929D01*
X3650357Y-12291214D01*
X3621786Y-12291214D01*
X3593214Y-12276929D01*
X3578928Y-12262643D01*
X3564643Y-12234071D01*
X3550357Y-12176929D01*
X3550357Y-12105500D01*
X3564643Y-12048357D01*
X3578928Y-12019786D01*
X3593214Y-12005500D01*
X3621786Y-11991214D01*
X3993214Y-11991214D02*
X3850357Y-11991214D01*
X3836071Y-12134071D01*
X3850357Y-12119786D01*
X3878928Y-12105500D01*
X3950357Y-12105500D01*
X3978928Y-12119786D01*
X3993214Y-12134071D01*
X4007500Y-12162643D01*
X4007500Y-12234071D01*
X3993214Y-12262643D01*
X3978928Y-12276929D01*
X3950357Y-12291214D01*
X3878928Y-12291214D01*
X3850357Y-12276929D01*
X3836071Y-12262643D01*
X4293214Y-12291214D02*
X4121786Y-12291214D01*
X4207500Y-12291214D02*
X4207500Y-11991214D01*
X4178928Y-12034071D01*
X4150357Y-12062643D01*
X4121786Y-12076929D01*
X4407500Y-12019786D02*
X4421786Y-12005500D01*
X4450357Y-11991214D01*
X4521786Y-11991214D01*
X4550357Y-12005500D01*
X4564643Y-12019786D01*
X4578928Y-12048357D01*
X4578928Y-12076929D01*
X4564643Y-12119786D01*
X4393214Y-12291214D01*
X4578928Y-12291214D01*
X4693214Y-11991214D02*
X4693214Y-12048357D01*
X4807500Y-11991214D02*
X4807500Y-12048357D01*
X5250357Y-12405500D02*
X5236071Y-12391214D01*
X5207500Y-12348357D01*
X5193214Y-12319786D01*
X5178928Y-12276929D01*
X5164643Y-12205500D01*
X5164643Y-12148357D01*
X5178928Y-12076929D01*
X5193214Y-12034071D01*
X5207500Y-12005500D01*
X5236071Y-11962643D01*
X5250357Y-11948357D01*
X5350357Y-12019786D02*
X5364643Y-12005500D01*
X5393214Y-11991214D01*
X5464643Y-11991214D01*
X5493214Y-12005500D01*
X5507500Y-12019786D01*
X5521786Y-12048357D01*
X5521786Y-12076929D01*
X5507500Y-12119786D01*
X5336071Y-12291214D01*
X5521786Y-12291214D01*
X5878928Y-12291214D02*
X5878928Y-11991214D01*
X6007500Y-12291214D02*
X6007500Y-12134071D01*
X5993214Y-12105500D01*
X5964643Y-12091214D01*
X5921786Y-12091214D01*
X5893214Y-12105500D01*
X5878928Y-12119786D01*
X6193214Y-12291214D02*
X6164643Y-12276929D01*
X6150357Y-12262643D01*
X6136071Y-12234071D01*
X6136071Y-12148357D01*
X6150357Y-12119786D01*
X6164643Y-12105500D01*
X6193214Y-12091214D01*
X6236071Y-12091214D01*
X6264643Y-12105500D01*
X6278928Y-12119786D01*
X6293214Y-12148357D01*
X6293214Y-12234071D01*
X6278928Y-12262643D01*
X6264643Y-12276929D01*
X6236071Y-12291214D01*
X6193214Y-12291214D01*
X6464643Y-12291214D02*
X6436071Y-12276929D01*
X6421786Y-12248357D01*
X6421786Y-11991214D01*
X6693214Y-12276929D02*
X6664643Y-12291214D01*
X6607500Y-12291214D01*
X6578928Y-12276929D01*
X6564643Y-12248357D01*
X6564643Y-12134071D01*
X6578928Y-12105500D01*
X6607500Y-12091214D01*
X6664643Y-12091214D01*
X6693214Y-12105500D01*
X6707500Y-12134071D01*
X6707500Y-12162643D01*
X6564643Y-12191214D01*
X6821786Y-12276929D02*
X6850357Y-12291214D01*
X6907500Y-12291214D01*
X6936071Y-12276929D01*
X6950357Y-12248357D01*
X6950357Y-12234071D01*
X6936071Y-12205500D01*
X6907500Y-12191214D01*
X6864643Y-12191214D01*
X6836071Y-12176929D01*
X6821786Y-12148357D01*
X6821786Y-12134071D01*
X6836071Y-12105500D01*
X6864643Y-12091214D01*
X6907500Y-12091214D01*
X6936071Y-12105500D01*
X7050357Y-12405500D02*
X7064643Y-12391214D01*
X7093214Y-12348357D01*
X7107500Y-12319786D01*
X7121786Y-12276929D01*
X7136071Y-12205500D01*
X7136071Y-12148357D01*
X7121786Y-12076929D01*
X7107500Y-12034071D01*
X7093214Y-12005500D01*
X7064643Y-11962643D01*
X7050357Y-11948357D01*
X-157500Y-12701500D02*
X-7500Y-12551500D01*
X-157500Y-12401500D01*
X-307500Y-12551500D01*
X-157500Y-12701500D01*
X250357Y-12387214D02*
X436071Y-12387214D01*
X336071Y-12501500D01*
X378928Y-12501500D01*
X407500Y-12515786D01*
X421786Y-12530071D01*
X436071Y-12558643D01*
X436071Y-12630071D01*
X421786Y-12658643D01*
X407500Y-12672929D01*
X378928Y-12687214D01*
X293214Y-12687214D01*
X264643Y-12672929D01*
X250357Y-12658643D01*
X564643Y-12658643D02*
X578928Y-12672929D01*
X564643Y-12687214D01*
X550357Y-12672929D01*
X564643Y-12658643D01*
X564643Y-12687214D01*
X764643Y-12387214D02*
X793214Y-12387214D01*
X821786Y-12401500D01*
X836071Y-12415786D01*
X850357Y-12444357D01*
X864643Y-12501500D01*
X864643Y-12572929D01*
X850357Y-12630071D01*
X836071Y-12658643D01*
X821786Y-12672929D01*
X793214Y-12687214D01*
X764643Y-12687214D01*
X736071Y-12672929D01*
X721786Y-12658643D01*
X707500Y-12630071D01*
X693214Y-12572929D01*
X693214Y-12501500D01*
X707500Y-12444357D01*
X721786Y-12415786D01*
X736071Y-12401500D01*
X764643Y-12387214D01*
X1050357Y-12387214D02*
X1078928Y-12387214D01*
X1107500Y-12401500D01*
X1121786Y-12415786D01*
X1136071Y-12444357D01*
X1150357Y-12501500D01*
X1150357Y-12572929D01*
X1136071Y-12630071D01*
X1121786Y-12658643D01*
X1107500Y-12672929D01*
X1078928Y-12687214D01*
X1050357Y-12687214D01*
X1021786Y-12672929D01*
X1007500Y-12658643D01*
X993214Y-12630071D01*
X978928Y-12572929D01*
X978928Y-12501500D01*
X993214Y-12444357D01*
X1007500Y-12415786D01*
X1021786Y-12401500D01*
X1050357Y-12387214D01*
X1336071Y-12387214D02*
X1364643Y-12387214D01*
X1393214Y-12401500D01*
X1407500Y-12415786D01*
X1421786Y-12444357D01*
X1436071Y-12501500D01*
X1436071Y-12572929D01*
X1421786Y-12630071D01*
X1407500Y-12658643D01*
X1393214Y-12672929D01*
X1364643Y-12687214D01*
X1336071Y-12687214D01*
X1307500Y-12672929D01*
X1293214Y-12658643D01*
X1278928Y-12630071D01*
X1264643Y-12572929D01*
X1264643Y-12501500D01*
X1278928Y-12444357D01*
X1293214Y-12415786D01*
X1307500Y-12401500D01*
X1336071Y-12387214D01*
X1564643Y-12687214D02*
X1564643Y-12487214D01*
X1564643Y-12515786D02*
X1578928Y-12501500D01*
X1607500Y-12487214D01*
X1650357Y-12487214D01*
X1678928Y-12501500D01*
X1693214Y-12530071D01*
X1693214Y-12687214D01*
X1693214Y-12530071D02*
X1707500Y-12501500D01*
X1736071Y-12487214D01*
X1778928Y-12487214D01*
X1807500Y-12501500D01*
X1821786Y-12530071D01*
X1821786Y-12687214D01*
X1964643Y-12687214D02*
X1964643Y-12487214D01*
X1964643Y-12515786D02*
X1978928Y-12501500D01*
X2007500Y-12487214D01*
X2050357Y-12487214D01*
X2078928Y-12501500D01*
X2093214Y-12530071D01*
X2093214Y-12687214D01*
X2093214Y-12530071D02*
X2107500Y-12501500D01*
X2136071Y-12487214D01*
X2178928Y-12487214D01*
X2207500Y-12501500D01*
X2221786Y-12530071D01*
X2221786Y-12687214D01*
X2807500Y-12372929D02*
X2550357Y-12758643D01*
X3193214Y-12387214D02*
X3221786Y-12387214D01*
X3250357Y-12401500D01*
X3264643Y-12415786D01*
X3278928Y-12444357D01*
X3293214Y-12501500D01*
X3293214Y-12572929D01*
X3278928Y-12630071D01*
X3264643Y-12658643D01*
X3250357Y-12672929D01*
X3221786Y-12687214D01*
X3193214Y-12687214D01*
X3164643Y-12672929D01*
X3150357Y-12658643D01*
X3136071Y-12630071D01*
X3121786Y-12572929D01*
X3121786Y-12501500D01*
X3136071Y-12444357D01*
X3150357Y-12415786D01*
X3164643Y-12401500D01*
X3193214Y-12387214D01*
X3421786Y-12658643D02*
X3436071Y-12672929D01*
X3421786Y-12687214D01*
X3407500Y-12672929D01*
X3421786Y-12658643D01*
X3421786Y-12687214D01*
X3721786Y-12687214D02*
X3550357Y-12687214D01*
X3636071Y-12687214D02*
X3636071Y-12387214D01*
X3607500Y-12430071D01*
X3578928Y-12458643D01*
X3550357Y-12472929D01*
X4007500Y-12687214D02*
X3836071Y-12687214D01*
X3921786Y-12687214D02*
X3921786Y-12387214D01*
X3893214Y-12430071D01*
X3864643Y-12458643D01*
X3836071Y-12472929D01*
X4178928Y-12515786D02*
X4150357Y-12501500D01*
X4136071Y-12487214D01*
X4121786Y-12458643D01*
X4121786Y-12444357D01*
X4136071Y-12415786D01*
X4150357Y-12401500D01*
X4178928Y-12387214D01*
X4236071Y-12387214D01*
X4264643Y-12401500D01*
X4278928Y-12415786D01*
X4293214Y-12444357D01*
X4293214Y-12458643D01*
X4278928Y-12487214D01*
X4264643Y-12501500D01*
X4236071Y-12515786D01*
X4178928Y-12515786D01*
X4150357Y-12530071D01*
X4136071Y-12544357D01*
X4121786Y-12572929D01*
X4121786Y-12630071D01*
X4136071Y-12658643D01*
X4150357Y-12672929D01*
X4178928Y-12687214D01*
X4236071Y-12687214D01*
X4264643Y-12672929D01*
X4278928Y-12658643D01*
X4293214Y-12630071D01*
X4293214Y-12572929D01*
X4278928Y-12544357D01*
X4264643Y-12530071D01*
X4236071Y-12515786D01*
X4578928Y-12687214D02*
X4407500Y-12687214D01*
X4493214Y-12687214D02*
X4493214Y-12387214D01*
X4464643Y-12430071D01*
X4436071Y-12458643D01*
X4407500Y-12472929D01*
X4693214Y-12387214D02*
X4693214Y-12444357D01*
X4807500Y-12387214D02*
X4807500Y-12444357D01*
X5250357Y-12801500D02*
X5236071Y-12787214D01*
X5207500Y-12744357D01*
X5193214Y-12715786D01*
X5178928Y-12672929D01*
X5164643Y-12601500D01*
X5164643Y-12544357D01*
X5178928Y-12472929D01*
X5193214Y-12430071D01*
X5207500Y-12401500D01*
X5236071Y-12358643D01*
X5250357Y-12344357D01*
X5493214Y-12487214D02*
X5493214Y-12687214D01*
X5421786Y-12372929D02*
X5350357Y-12587214D01*
X5536071Y-12587214D01*
X5878928Y-12687214D02*
X5878928Y-12387214D01*
X6007500Y-12687214D02*
X6007500Y-12530071D01*
X5993214Y-12501500D01*
X5964643Y-12487214D01*
X5921786Y-12487214D01*
X5893214Y-12501500D01*
X5878928Y-12515786D01*
X6193214Y-12687214D02*
X6164643Y-12672929D01*
X6150357Y-12658643D01*
X6136071Y-12630071D01*
X6136071Y-12544357D01*
X6150357Y-12515786D01*
X6164643Y-12501500D01*
X6193214Y-12487214D01*
X6236071Y-12487214D01*
X6264643Y-12501500D01*
X6278928Y-12515786D01*
X6293214Y-12544357D01*
X6293214Y-12630071D01*
X6278928Y-12658643D01*
X6264643Y-12672929D01*
X6236071Y-12687214D01*
X6193214Y-12687214D01*
X6464643Y-12687214D02*
X6436071Y-12672929D01*
X6421786Y-12644357D01*
X6421786Y-12387214D01*
X6693214Y-12672929D02*
X6664643Y-12687214D01*
X6607500Y-12687214D01*
X6578928Y-12672929D01*
X6564643Y-12644357D01*
X6564643Y-12530071D01*
X6578928Y-12501500D01*
X6607500Y-12487214D01*
X6664643Y-12487214D01*
X6693214Y-12501500D01*
X6707500Y-12530071D01*
X6707500Y-12558643D01*
X6564643Y-12587214D01*
X6821786Y-12672929D02*
X6850357Y-12687214D01*
X6907500Y-12687214D01*
X6936071Y-12672929D01*
X6950357Y-12644357D01*
X6950357Y-12630071D01*
X6936071Y-12601500D01*
X6907500Y-12587214D01*
X6864643Y-12587214D01*
X6836071Y-12572929D01*
X6821786Y-12544357D01*
X6821786Y-12530071D01*
X6836071Y-12501500D01*
X6864643Y-12487214D01*
X6907500Y-12487214D01*
X6936071Y-12501500D01*
X7050357Y-12801500D02*
X7064643Y-12787214D01*
X7093214Y-12744357D01*
X7107500Y-12715786D01*
X7121786Y-12672929D01*
X7136071Y-12601500D01*
X7136071Y-12544357D01*
X7121786Y-12472929D01*
X7107500Y-12430071D01*
X7093214Y-12401500D01*
X7064643Y-12358643D01*
X7050357Y-12344357D01*
M02*
