%FSLAX45Y45*%
G04 Gerber Fmt 4.5, Leading zero omitted, Abs format (unit mm)*
G04 Created by KiCad (PCBNEW 5.1.12-84ad8e8a86~92~ubuntu20.04.1) date 2021-12-15 11:08:15*
%MOMM*%
%LPD*%
G01*
G04 APERTURE LIST*
%TA.AperFunction,Profile*%
%ADD10C,0.150000*%
%TD*%
%ADD11C,0.200000*%
%ADD12C,0.300000*%
G04 APERTURE END LIST*
D10*
X4285000Y-8019532D02*
G75*
G03*
X4285000Y-8019532I-1400000J0D01*
G01*
X0Y-10000000D02*
X0Y0D01*
X5770000Y-10000000D02*
X0Y-10000000D01*
X5770000Y0D02*
X5770000Y-10000000D01*
X0Y0D02*
X5770000Y0D01*
D11*
X121924Y-6673928D02*
X241924Y-6793928D01*
X241924Y-6673928D02*
X121924Y-6793928D01*
X121924Y-7673928D02*
X241924Y-7793928D01*
X241924Y-7673928D02*
X121924Y-7793928D01*
X346924Y-6673928D02*
X466924Y-6793928D01*
X466924Y-6673928D02*
X346924Y-6793928D01*
X346924Y-7673928D02*
X466924Y-7793928D01*
X466924Y-7673928D02*
X346924Y-7793928D01*
X846924Y-7173928D02*
X966924Y-7293928D01*
X966924Y-7173928D02*
X846924Y-7293928D01*
X830000Y-1985000D02*
G75*
G03*
X830000Y-1985000I-100000J0D01*
G01*
X1710000Y-1985000D02*
G75*
G03*
X1710000Y-1985000I-100000J0D01*
G01*
D12*
X278928Y-10473214D02*
X278928Y-10173214D01*
X350357Y-10173214D01*
X393214Y-10187500D01*
X421786Y-10216072D01*
X436071Y-10244643D01*
X450357Y-10301786D01*
X450357Y-10344643D01*
X436071Y-10401786D01*
X421786Y-10430357D01*
X393214Y-10458929D01*
X350357Y-10473214D01*
X278928Y-10473214D01*
X578928Y-10473214D02*
X578928Y-10273214D01*
X578928Y-10330357D02*
X593214Y-10301786D01*
X607500Y-10287500D01*
X636071Y-10273214D01*
X664643Y-10273214D01*
X764643Y-10473214D02*
X764643Y-10273214D01*
X764643Y-10173214D02*
X750357Y-10187500D01*
X764643Y-10201786D01*
X778928Y-10187500D01*
X764643Y-10173214D01*
X764643Y-10201786D01*
X950357Y-10473214D02*
X921786Y-10458929D01*
X907500Y-10430357D01*
X907500Y-10173214D01*
X1107500Y-10473214D02*
X1078928Y-10458929D01*
X1064643Y-10430357D01*
X1064643Y-10173214D01*
X1450357Y-10473214D02*
X1450357Y-10173214D01*
X1550357Y-10387500D01*
X1650357Y-10173214D01*
X1650357Y-10473214D01*
X1921786Y-10473214D02*
X1921786Y-10316072D01*
X1907500Y-10287500D01*
X1878928Y-10273214D01*
X1821786Y-10273214D01*
X1793214Y-10287500D01*
X1921786Y-10458929D02*
X1893214Y-10473214D01*
X1821786Y-10473214D01*
X1793214Y-10458929D01*
X1778928Y-10430357D01*
X1778928Y-10401786D01*
X1793214Y-10373214D01*
X1821786Y-10358929D01*
X1893214Y-10358929D01*
X1921786Y-10344643D01*
X2064643Y-10273214D02*
X2064643Y-10573214D01*
X2064643Y-10287500D02*
X2093214Y-10273214D01*
X2150357Y-10273214D01*
X2178928Y-10287500D01*
X2193214Y-10301786D01*
X2207500Y-10330357D01*
X2207500Y-10416072D01*
X2193214Y-10444643D01*
X2178928Y-10458929D01*
X2150357Y-10473214D01*
X2093214Y-10473214D01*
X2064643Y-10458929D01*
X2336071Y-10444643D02*
X2350357Y-10458929D01*
X2336071Y-10473214D01*
X2321786Y-10458929D01*
X2336071Y-10444643D01*
X2336071Y-10473214D01*
X2336071Y-10287500D02*
X2350357Y-10301786D01*
X2336071Y-10316072D01*
X2321786Y-10301786D01*
X2336071Y-10287500D01*
X2336071Y-10316072D01*
X-127500Y-10907500D02*
X-7500Y-11027500D01*
X-7500Y-10907500D02*
X-127500Y-11027500D01*
X436071Y-11103214D02*
X264643Y-11103214D01*
X350357Y-11103214D02*
X350357Y-10803214D01*
X321786Y-10846072D01*
X293214Y-10874643D01*
X264643Y-10888929D01*
X564643Y-11074643D02*
X578928Y-11088929D01*
X564643Y-11103214D01*
X550357Y-11088929D01*
X564643Y-11074643D01*
X564643Y-11103214D01*
X693214Y-10831786D02*
X707500Y-10817500D01*
X736071Y-10803214D01*
X807500Y-10803214D01*
X836071Y-10817500D01*
X850357Y-10831786D01*
X864643Y-10860357D01*
X864643Y-10888929D01*
X850357Y-10931786D01*
X678928Y-11103214D01*
X864643Y-11103214D01*
X1050357Y-10803214D02*
X1078928Y-10803214D01*
X1107500Y-10817500D01*
X1121786Y-10831786D01*
X1136071Y-10860357D01*
X1150357Y-10917500D01*
X1150357Y-10988929D01*
X1136071Y-11046072D01*
X1121786Y-11074643D01*
X1107500Y-11088929D01*
X1078928Y-11103214D01*
X1050357Y-11103214D01*
X1021786Y-11088929D01*
X1007500Y-11074643D01*
X993214Y-11046072D01*
X978928Y-10988929D01*
X978928Y-10917500D01*
X993214Y-10860357D01*
X1007500Y-10831786D01*
X1021786Y-10817500D01*
X1050357Y-10803214D01*
X1336071Y-10803214D02*
X1364643Y-10803214D01*
X1393214Y-10817500D01*
X1407500Y-10831786D01*
X1421786Y-10860357D01*
X1436071Y-10917500D01*
X1436071Y-10988929D01*
X1421786Y-11046072D01*
X1407500Y-11074643D01*
X1393214Y-11088929D01*
X1364643Y-11103214D01*
X1336071Y-11103214D01*
X1307500Y-11088929D01*
X1293214Y-11074643D01*
X1278928Y-11046072D01*
X1264643Y-10988929D01*
X1264643Y-10917500D01*
X1278928Y-10860357D01*
X1293214Y-10831786D01*
X1307500Y-10817500D01*
X1336071Y-10803214D01*
X1564643Y-11103214D02*
X1564643Y-10903214D01*
X1564643Y-10931786D02*
X1578928Y-10917500D01*
X1607500Y-10903214D01*
X1650357Y-10903214D01*
X1678928Y-10917500D01*
X1693214Y-10946072D01*
X1693214Y-11103214D01*
X1693214Y-10946072D02*
X1707500Y-10917500D01*
X1736071Y-10903214D01*
X1778928Y-10903214D01*
X1807500Y-10917500D01*
X1821786Y-10946072D01*
X1821786Y-11103214D01*
X1964643Y-11103214D02*
X1964643Y-10903214D01*
X1964643Y-10931786D02*
X1978928Y-10917500D01*
X2007500Y-10903214D01*
X2050357Y-10903214D01*
X2078928Y-10917500D01*
X2093214Y-10946072D01*
X2093214Y-11103214D01*
X2093214Y-10946072D02*
X2107500Y-10917500D01*
X2136071Y-10903214D01*
X2178928Y-10903214D01*
X2207500Y-10917500D01*
X2221786Y-10946072D01*
X2221786Y-11103214D01*
X2807500Y-10788929D02*
X2550357Y-11174643D01*
X3193214Y-10803214D02*
X3221786Y-10803214D01*
X3250357Y-10817500D01*
X3264643Y-10831786D01*
X3278928Y-10860357D01*
X3293214Y-10917500D01*
X3293214Y-10988929D01*
X3278928Y-11046072D01*
X3264643Y-11074643D01*
X3250357Y-11088929D01*
X3221786Y-11103214D01*
X3193214Y-11103214D01*
X3164643Y-11088929D01*
X3150357Y-11074643D01*
X3136071Y-11046072D01*
X3121786Y-10988929D01*
X3121786Y-10917500D01*
X3136071Y-10860357D01*
X3150357Y-10831786D01*
X3164643Y-10817500D01*
X3193214Y-10803214D01*
X3421786Y-11074643D02*
X3436071Y-11088929D01*
X3421786Y-11103214D01*
X3407500Y-11088929D01*
X3421786Y-11074643D01*
X3421786Y-11103214D01*
X3621786Y-10803214D02*
X3650357Y-10803214D01*
X3678928Y-10817500D01*
X3693214Y-10831786D01*
X3707500Y-10860357D01*
X3721786Y-10917500D01*
X3721786Y-10988929D01*
X3707500Y-11046072D01*
X3693214Y-11074643D01*
X3678928Y-11088929D01*
X3650357Y-11103214D01*
X3621786Y-11103214D01*
X3593214Y-11088929D01*
X3578928Y-11074643D01*
X3564643Y-11046072D01*
X3550357Y-10988929D01*
X3550357Y-10917500D01*
X3564643Y-10860357D01*
X3578928Y-10831786D01*
X3593214Y-10817500D01*
X3621786Y-10803214D01*
X3978928Y-10903214D02*
X3978928Y-11103214D01*
X3907500Y-10788929D02*
X3836071Y-11003214D01*
X4021786Y-11003214D01*
X4107500Y-10803214D02*
X4307500Y-10803214D01*
X4178928Y-11103214D01*
X4407500Y-10831786D02*
X4421786Y-10817500D01*
X4450357Y-10803214D01*
X4521786Y-10803214D01*
X4550357Y-10817500D01*
X4564643Y-10831786D01*
X4578928Y-10860357D01*
X4578928Y-10888929D01*
X4564643Y-10931786D01*
X4393214Y-11103214D01*
X4578928Y-11103214D01*
X4693214Y-10803214D02*
X4693214Y-10860357D01*
X4807500Y-10803214D02*
X4807500Y-10860357D01*
X5250357Y-11217500D02*
X5236071Y-11203214D01*
X5207500Y-11160357D01*
X5193214Y-11131786D01*
X5178928Y-11088929D01*
X5164643Y-11017500D01*
X5164643Y-10960357D01*
X5178928Y-10888929D01*
X5193214Y-10846072D01*
X5207500Y-10817500D01*
X5236071Y-10774643D01*
X5250357Y-10760357D01*
X5507500Y-10803214D02*
X5364643Y-10803214D01*
X5350357Y-10946072D01*
X5364643Y-10931786D01*
X5393214Y-10917500D01*
X5464643Y-10917500D01*
X5493214Y-10931786D01*
X5507500Y-10946072D01*
X5521786Y-10974643D01*
X5521786Y-11046072D01*
X5507500Y-11074643D01*
X5493214Y-11088929D01*
X5464643Y-11103214D01*
X5393214Y-11103214D01*
X5364643Y-11088929D01*
X5350357Y-11074643D01*
X5878928Y-11103214D02*
X5878928Y-10803214D01*
X6007500Y-11103214D02*
X6007500Y-10946072D01*
X5993214Y-10917500D01*
X5964643Y-10903214D01*
X5921786Y-10903214D01*
X5893214Y-10917500D01*
X5878928Y-10931786D01*
X6193214Y-11103214D02*
X6164643Y-11088929D01*
X6150357Y-11074643D01*
X6136071Y-11046072D01*
X6136071Y-10960357D01*
X6150357Y-10931786D01*
X6164643Y-10917500D01*
X6193214Y-10903214D01*
X6236071Y-10903214D01*
X6264643Y-10917500D01*
X6278928Y-10931786D01*
X6293214Y-10960357D01*
X6293214Y-11046072D01*
X6278928Y-11074643D01*
X6264643Y-11088929D01*
X6236071Y-11103214D01*
X6193214Y-11103214D01*
X6464643Y-11103214D02*
X6436071Y-11088929D01*
X6421786Y-11060357D01*
X6421786Y-10803214D01*
X6693214Y-11088929D02*
X6664643Y-11103214D01*
X6607500Y-11103214D01*
X6578928Y-11088929D01*
X6564643Y-11060357D01*
X6564643Y-10946072D01*
X6578928Y-10917500D01*
X6607500Y-10903214D01*
X6664643Y-10903214D01*
X6693214Y-10917500D01*
X6707500Y-10946072D01*
X6707500Y-10974643D01*
X6564643Y-11003214D01*
X6821786Y-11088929D02*
X6850357Y-11103214D01*
X6907500Y-11103214D01*
X6936071Y-11088929D01*
X6950357Y-11060357D01*
X6950357Y-11046072D01*
X6936071Y-11017500D01*
X6907500Y-11003214D01*
X6864643Y-11003214D01*
X6836071Y-10988929D01*
X6821786Y-10960357D01*
X6821786Y-10946072D01*
X6836071Y-10917500D01*
X6864643Y-10903214D01*
X6907500Y-10903214D01*
X6936071Y-10917500D01*
X7050357Y-11217500D02*
X7064643Y-11203214D01*
X7093214Y-11160357D01*
X7107500Y-11131786D01*
X7121786Y-11088929D01*
X7136071Y-11017500D01*
X7136071Y-10960357D01*
X7121786Y-10888929D01*
X7107500Y-10846072D01*
X7093214Y-10817500D01*
X7064643Y-10774643D01*
X7050357Y-10760357D01*
X7593214Y-11217500D02*
X7578928Y-11203214D01*
X7550357Y-11160357D01*
X7536071Y-11131786D01*
X7521786Y-11088929D01*
X7507500Y-11017500D01*
X7507500Y-10960357D01*
X7521786Y-10888929D01*
X7536071Y-10846072D01*
X7550357Y-10817500D01*
X7578928Y-10774643D01*
X7593214Y-10760357D01*
X7707500Y-10903214D02*
X7707500Y-11103214D01*
X7707500Y-10931786D02*
X7721786Y-10917500D01*
X7750357Y-10903214D01*
X7793214Y-10903214D01*
X7821786Y-10917500D01*
X7836071Y-10946072D01*
X7836071Y-11103214D01*
X8021786Y-11103214D02*
X7993214Y-11088929D01*
X7978928Y-11074643D01*
X7964643Y-11046072D01*
X7964643Y-10960357D01*
X7978928Y-10931786D01*
X7993214Y-10917500D01*
X8021786Y-10903214D01*
X8064643Y-10903214D01*
X8093214Y-10917500D01*
X8107500Y-10931786D01*
X8121786Y-10960357D01*
X8121786Y-11046072D01*
X8107500Y-11074643D01*
X8093214Y-11088929D01*
X8064643Y-11103214D01*
X8021786Y-11103214D01*
X8207500Y-10903214D02*
X8321786Y-10903214D01*
X8250357Y-10803214D02*
X8250357Y-11060357D01*
X8264643Y-11088929D01*
X8293214Y-11103214D01*
X8321786Y-11103214D01*
X8650357Y-10903214D02*
X8650357Y-11203214D01*
X8650357Y-10917500D02*
X8678928Y-10903214D01*
X8736071Y-10903214D01*
X8764643Y-10917500D01*
X8778928Y-10931786D01*
X8793214Y-10960357D01*
X8793214Y-11046072D01*
X8778928Y-11074643D01*
X8764643Y-11088929D01*
X8736071Y-11103214D01*
X8678928Y-11103214D01*
X8650357Y-11088929D01*
X8964643Y-11103214D02*
X8936071Y-11088929D01*
X8921786Y-11060357D01*
X8921786Y-10803214D01*
X9207500Y-11103214D02*
X9207500Y-10946072D01*
X9193214Y-10917500D01*
X9164643Y-10903214D01*
X9107500Y-10903214D01*
X9078928Y-10917500D01*
X9207500Y-11088929D02*
X9178928Y-11103214D01*
X9107500Y-11103214D01*
X9078928Y-11088929D01*
X9064643Y-11060357D01*
X9064643Y-11031786D01*
X9078928Y-11003214D01*
X9107500Y-10988929D01*
X9178928Y-10988929D01*
X9207500Y-10974643D01*
X9307500Y-10903214D02*
X9421786Y-10903214D01*
X9350357Y-10803214D02*
X9350357Y-11060357D01*
X9364643Y-11088929D01*
X9393214Y-11103214D01*
X9421786Y-11103214D01*
X9636071Y-11088929D02*
X9607500Y-11103214D01*
X9550357Y-11103214D01*
X9521786Y-11088929D01*
X9507500Y-11060357D01*
X9507500Y-10946072D01*
X9521786Y-10917500D01*
X9550357Y-10903214D01*
X9607500Y-10903214D01*
X9636071Y-10917500D01*
X9650357Y-10946072D01*
X9650357Y-10974643D01*
X9507500Y-11003214D01*
X9907500Y-11103214D02*
X9907500Y-10803214D01*
X9907500Y-11088929D02*
X9878928Y-11103214D01*
X9821786Y-11103214D01*
X9793214Y-11088929D01*
X9778928Y-11074643D01*
X9764643Y-11046072D01*
X9764643Y-10960357D01*
X9778928Y-10931786D01*
X9793214Y-10917500D01*
X9821786Y-10903214D01*
X9878928Y-10903214D01*
X9907500Y-10917500D01*
X10021786Y-11217500D02*
X10036071Y-11203214D01*
X10064643Y-11160357D01*
X10078928Y-11131786D01*
X10093214Y-11088929D01*
X10107500Y-11017500D01*
X10107500Y-10960357D01*
X10093214Y-10888929D01*
X10078928Y-10846072D01*
X10064643Y-10817500D01*
X10036071Y-10774643D01*
X10021786Y-10760357D01*
X-7500Y-11363500D02*
G75*
G03*
X-7500Y-11363500I-100000J0D01*
G01*
X264643Y-11227786D02*
X278928Y-11213500D01*
X307500Y-11199214D01*
X378928Y-11199214D01*
X407500Y-11213500D01*
X421786Y-11227786D01*
X436071Y-11256357D01*
X436071Y-11284929D01*
X421786Y-11327786D01*
X250357Y-11499214D01*
X436071Y-11499214D01*
X564643Y-11470643D02*
X578928Y-11484929D01*
X564643Y-11499214D01*
X550357Y-11484929D01*
X564643Y-11470643D01*
X564643Y-11499214D01*
X764643Y-11199214D02*
X793214Y-11199214D01*
X821786Y-11213500D01*
X836071Y-11227786D01*
X850357Y-11256357D01*
X864643Y-11313500D01*
X864643Y-11384929D01*
X850357Y-11442071D01*
X836071Y-11470643D01*
X821786Y-11484929D01*
X793214Y-11499214D01*
X764643Y-11499214D01*
X736071Y-11484929D01*
X721786Y-11470643D01*
X707500Y-11442071D01*
X693214Y-11384929D01*
X693214Y-11313500D01*
X707500Y-11256357D01*
X721786Y-11227786D01*
X736071Y-11213500D01*
X764643Y-11199214D01*
X1050357Y-11199214D02*
X1078928Y-11199214D01*
X1107500Y-11213500D01*
X1121786Y-11227786D01*
X1136071Y-11256357D01*
X1150357Y-11313500D01*
X1150357Y-11384929D01*
X1136071Y-11442071D01*
X1121786Y-11470643D01*
X1107500Y-11484929D01*
X1078928Y-11499214D01*
X1050357Y-11499214D01*
X1021786Y-11484929D01*
X1007500Y-11470643D01*
X993214Y-11442071D01*
X978928Y-11384929D01*
X978928Y-11313500D01*
X993214Y-11256357D01*
X1007500Y-11227786D01*
X1021786Y-11213500D01*
X1050357Y-11199214D01*
X1336071Y-11199214D02*
X1364643Y-11199214D01*
X1393214Y-11213500D01*
X1407500Y-11227786D01*
X1421786Y-11256357D01*
X1436071Y-11313500D01*
X1436071Y-11384929D01*
X1421786Y-11442071D01*
X1407500Y-11470643D01*
X1393214Y-11484929D01*
X1364643Y-11499214D01*
X1336071Y-11499214D01*
X1307500Y-11484929D01*
X1293214Y-11470643D01*
X1278928Y-11442071D01*
X1264643Y-11384929D01*
X1264643Y-11313500D01*
X1278928Y-11256357D01*
X1293214Y-11227786D01*
X1307500Y-11213500D01*
X1336071Y-11199214D01*
X1564643Y-11499214D02*
X1564643Y-11299214D01*
X1564643Y-11327786D02*
X1578928Y-11313500D01*
X1607500Y-11299214D01*
X1650357Y-11299214D01*
X1678928Y-11313500D01*
X1693214Y-11342071D01*
X1693214Y-11499214D01*
X1693214Y-11342071D02*
X1707500Y-11313500D01*
X1736071Y-11299214D01*
X1778928Y-11299214D01*
X1807500Y-11313500D01*
X1821786Y-11342071D01*
X1821786Y-11499214D01*
X1964643Y-11499214D02*
X1964643Y-11299214D01*
X1964643Y-11327786D02*
X1978928Y-11313500D01*
X2007500Y-11299214D01*
X2050357Y-11299214D01*
X2078928Y-11313500D01*
X2093214Y-11342071D01*
X2093214Y-11499214D01*
X2093214Y-11342071D02*
X2107500Y-11313500D01*
X2136071Y-11299214D01*
X2178928Y-11299214D01*
X2207500Y-11313500D01*
X2221786Y-11342071D01*
X2221786Y-11499214D01*
X2807500Y-11184929D02*
X2550357Y-11570643D01*
X3193214Y-11199214D02*
X3221786Y-11199214D01*
X3250357Y-11213500D01*
X3264643Y-11227786D01*
X3278928Y-11256357D01*
X3293214Y-11313500D01*
X3293214Y-11384929D01*
X3278928Y-11442071D01*
X3264643Y-11470643D01*
X3250357Y-11484929D01*
X3221786Y-11499214D01*
X3193214Y-11499214D01*
X3164643Y-11484929D01*
X3150357Y-11470643D01*
X3136071Y-11442071D01*
X3121786Y-11384929D01*
X3121786Y-11313500D01*
X3136071Y-11256357D01*
X3150357Y-11227786D01*
X3164643Y-11213500D01*
X3193214Y-11199214D01*
X3421786Y-11470643D02*
X3436071Y-11484929D01*
X3421786Y-11499214D01*
X3407500Y-11484929D01*
X3421786Y-11470643D01*
X3421786Y-11499214D01*
X3621786Y-11199214D02*
X3650357Y-11199214D01*
X3678928Y-11213500D01*
X3693214Y-11227786D01*
X3707500Y-11256357D01*
X3721786Y-11313500D01*
X3721786Y-11384929D01*
X3707500Y-11442071D01*
X3693214Y-11470643D01*
X3678928Y-11484929D01*
X3650357Y-11499214D01*
X3621786Y-11499214D01*
X3593214Y-11484929D01*
X3578928Y-11470643D01*
X3564643Y-11442071D01*
X3550357Y-11384929D01*
X3550357Y-11313500D01*
X3564643Y-11256357D01*
X3578928Y-11227786D01*
X3593214Y-11213500D01*
X3621786Y-11199214D01*
X3821786Y-11199214D02*
X4021786Y-11199214D01*
X3893214Y-11499214D01*
X4178928Y-11327786D02*
X4150357Y-11313500D01*
X4136071Y-11299214D01*
X4121786Y-11270643D01*
X4121786Y-11256357D01*
X4136071Y-11227786D01*
X4150357Y-11213500D01*
X4178928Y-11199214D01*
X4236071Y-11199214D01*
X4264643Y-11213500D01*
X4278928Y-11227786D01*
X4293214Y-11256357D01*
X4293214Y-11270643D01*
X4278928Y-11299214D01*
X4264643Y-11313500D01*
X4236071Y-11327786D01*
X4178928Y-11327786D01*
X4150357Y-11342071D01*
X4136071Y-11356357D01*
X4121786Y-11384929D01*
X4121786Y-11442071D01*
X4136071Y-11470643D01*
X4150357Y-11484929D01*
X4178928Y-11499214D01*
X4236071Y-11499214D01*
X4264643Y-11484929D01*
X4278928Y-11470643D01*
X4293214Y-11442071D01*
X4293214Y-11384929D01*
X4278928Y-11356357D01*
X4264643Y-11342071D01*
X4236071Y-11327786D01*
X4393214Y-11199214D02*
X4593214Y-11199214D01*
X4464643Y-11499214D01*
X4693214Y-11199214D02*
X4693214Y-11256357D01*
X4807500Y-11199214D02*
X4807500Y-11256357D01*
X5250357Y-11613500D02*
X5236071Y-11599214D01*
X5207500Y-11556357D01*
X5193214Y-11527786D01*
X5178928Y-11484929D01*
X5164643Y-11413500D01*
X5164643Y-11356357D01*
X5178928Y-11284929D01*
X5193214Y-11242071D01*
X5207500Y-11213500D01*
X5236071Y-11170643D01*
X5250357Y-11156357D01*
X5350357Y-11227786D02*
X5364643Y-11213500D01*
X5393214Y-11199214D01*
X5464643Y-11199214D01*
X5493214Y-11213500D01*
X5507500Y-11227786D01*
X5521786Y-11256357D01*
X5521786Y-11284929D01*
X5507500Y-11327786D01*
X5336071Y-11499214D01*
X5521786Y-11499214D01*
X5878928Y-11499214D02*
X5878928Y-11199214D01*
X6007500Y-11499214D02*
X6007500Y-11342071D01*
X5993214Y-11313500D01*
X5964643Y-11299214D01*
X5921786Y-11299214D01*
X5893214Y-11313500D01*
X5878928Y-11327786D01*
X6193214Y-11499214D02*
X6164643Y-11484929D01*
X6150357Y-11470643D01*
X6136071Y-11442071D01*
X6136071Y-11356357D01*
X6150357Y-11327786D01*
X6164643Y-11313500D01*
X6193214Y-11299214D01*
X6236071Y-11299214D01*
X6264643Y-11313500D01*
X6278928Y-11327786D01*
X6293214Y-11356357D01*
X6293214Y-11442071D01*
X6278928Y-11470643D01*
X6264643Y-11484929D01*
X6236071Y-11499214D01*
X6193214Y-11499214D01*
X6464643Y-11499214D02*
X6436071Y-11484929D01*
X6421786Y-11456357D01*
X6421786Y-11199214D01*
X6693214Y-11484929D02*
X6664643Y-11499214D01*
X6607500Y-11499214D01*
X6578928Y-11484929D01*
X6564643Y-11456357D01*
X6564643Y-11342071D01*
X6578928Y-11313500D01*
X6607500Y-11299214D01*
X6664643Y-11299214D01*
X6693214Y-11313500D01*
X6707500Y-11342071D01*
X6707500Y-11370643D01*
X6564643Y-11399214D01*
X6821786Y-11484929D02*
X6850357Y-11499214D01*
X6907500Y-11499214D01*
X6936071Y-11484929D01*
X6950357Y-11456357D01*
X6950357Y-11442071D01*
X6936071Y-11413500D01*
X6907500Y-11399214D01*
X6864643Y-11399214D01*
X6836071Y-11384929D01*
X6821786Y-11356357D01*
X6821786Y-11342071D01*
X6836071Y-11313500D01*
X6864643Y-11299214D01*
X6907500Y-11299214D01*
X6936071Y-11313500D01*
X7050357Y-11613500D02*
X7064643Y-11599214D01*
X7093214Y-11556357D01*
X7107500Y-11527786D01*
X7121786Y-11484929D01*
X7136071Y-11413500D01*
X7136071Y-11356357D01*
X7121786Y-11284929D01*
X7107500Y-11242071D01*
X7093214Y-11213500D01*
X7064643Y-11170643D01*
X7050357Y-11156357D01*
X7593214Y-11613500D02*
X7578928Y-11599214D01*
X7550357Y-11556357D01*
X7536071Y-11527786D01*
X7521786Y-11484929D01*
X7507500Y-11413500D01*
X7507500Y-11356357D01*
X7521786Y-11284929D01*
X7536071Y-11242071D01*
X7550357Y-11213500D01*
X7578928Y-11170643D01*
X7593214Y-11156357D01*
X7707500Y-11299214D02*
X7707500Y-11499214D01*
X7707500Y-11327786D02*
X7721786Y-11313500D01*
X7750357Y-11299214D01*
X7793214Y-11299214D01*
X7821786Y-11313500D01*
X7836071Y-11342071D01*
X7836071Y-11499214D01*
X8021786Y-11499214D02*
X7993214Y-11484929D01*
X7978928Y-11470643D01*
X7964643Y-11442071D01*
X7964643Y-11356357D01*
X7978928Y-11327786D01*
X7993214Y-11313500D01*
X8021786Y-11299214D01*
X8064643Y-11299214D01*
X8093214Y-11313500D01*
X8107500Y-11327786D01*
X8121786Y-11356357D01*
X8121786Y-11442071D01*
X8107500Y-11470643D01*
X8093214Y-11484929D01*
X8064643Y-11499214D01*
X8021786Y-11499214D01*
X8207500Y-11299214D02*
X8321786Y-11299214D01*
X8250357Y-11199214D02*
X8250357Y-11456357D01*
X8264643Y-11484929D01*
X8293214Y-11499214D01*
X8321786Y-11499214D01*
X8650357Y-11299214D02*
X8650357Y-11599214D01*
X8650357Y-11313500D02*
X8678928Y-11299214D01*
X8736071Y-11299214D01*
X8764643Y-11313500D01*
X8778928Y-11327786D01*
X8793214Y-11356357D01*
X8793214Y-11442071D01*
X8778928Y-11470643D01*
X8764643Y-11484929D01*
X8736071Y-11499214D01*
X8678928Y-11499214D01*
X8650357Y-11484929D01*
X8964643Y-11499214D02*
X8936071Y-11484929D01*
X8921786Y-11456357D01*
X8921786Y-11199214D01*
X9207500Y-11499214D02*
X9207500Y-11342071D01*
X9193214Y-11313500D01*
X9164643Y-11299214D01*
X9107500Y-11299214D01*
X9078928Y-11313500D01*
X9207500Y-11484929D02*
X9178928Y-11499214D01*
X9107500Y-11499214D01*
X9078928Y-11484929D01*
X9064643Y-11456357D01*
X9064643Y-11427786D01*
X9078928Y-11399214D01*
X9107500Y-11384929D01*
X9178928Y-11384929D01*
X9207500Y-11370643D01*
X9307500Y-11299214D02*
X9421786Y-11299214D01*
X9350357Y-11199214D02*
X9350357Y-11456357D01*
X9364643Y-11484929D01*
X9393214Y-11499214D01*
X9421786Y-11499214D01*
X9636071Y-11484929D02*
X9607500Y-11499214D01*
X9550357Y-11499214D01*
X9521786Y-11484929D01*
X9507500Y-11456357D01*
X9507500Y-11342071D01*
X9521786Y-11313500D01*
X9550357Y-11299214D01*
X9607500Y-11299214D01*
X9636071Y-11313500D01*
X9650357Y-11342071D01*
X9650357Y-11370643D01*
X9507500Y-11399214D01*
X9907500Y-11499214D02*
X9907500Y-11199214D01*
X9907500Y-11484929D02*
X9878928Y-11499214D01*
X9821786Y-11499214D01*
X9793214Y-11484929D01*
X9778928Y-11470643D01*
X9764643Y-11442071D01*
X9764643Y-11356357D01*
X9778928Y-11327786D01*
X9793214Y-11313500D01*
X9821786Y-11299214D01*
X9878928Y-11299214D01*
X9907500Y-11313500D01*
X10021786Y-11613500D02*
X10036071Y-11599214D01*
X10064643Y-11556357D01*
X10078928Y-11527786D01*
X10093214Y-11484929D01*
X10107500Y-11413500D01*
X10107500Y-11356357D01*
X10093214Y-11284929D01*
X10078928Y-11242071D01*
X10064643Y-11213500D01*
X10036071Y-11170643D01*
X10021786Y-11156357D01*
M02*
