G04 #@! TF.GenerationSoftware,KiCad,Pcbnew,5.1.12-84ad8e8a86~92~ubuntu20.04.1*
G04 #@! TF.CreationDate,2021-12-15T11:08:09-07:00*
G04 #@! TF.ProjectId,The Ear Tool,54686520-4561-4722-9054-6f6f6c2e6b69,1.3*
G04 #@! TF.SameCoordinates,Original*
G04 #@! TF.FileFunction,Copper,L1,Top*
G04 #@! TF.FilePolarity,Positive*
%FSLAX46Y46*%
G04 Gerber Fmt 4.6, Leading zero omitted, Abs format (unit mm)*
G04 Created by KiCad (PCBNEW 5.1.12-84ad8e8a86~92~ubuntu20.04.1) date 2021-12-15 11:08:09*
%MOMM*%
%LPD*%
G01*
G04 APERTURE LIST*
G04 #@! TA.AperFunction,ComponentPad*
%ADD10C,1.800000*%
G04 #@! TD*
G04 #@! TA.AperFunction,ComponentPad*
%ADD11R,1.800000X1.800000*%
G04 #@! TD*
G04 #@! TA.AperFunction,WasherPad*
%ADD12C,4.000000*%
G04 #@! TD*
G04 #@! TA.AperFunction,ComponentPad*
%ADD13R,2.500000X1.500000*%
G04 #@! TD*
G04 #@! TA.AperFunction,ComponentPad*
%ADD14O,2.500000X1.500000*%
G04 #@! TD*
G04 #@! TA.AperFunction,ComponentPad*
%ADD15C,6.000000*%
G04 #@! TD*
G04 #@! TA.AperFunction,ComponentPad*
%ADD16R,1.800000X2.700000*%
G04 #@! TD*
G04 #@! TA.AperFunction,ComponentPad*
%ADD17R,2.700000X1.800000*%
G04 #@! TD*
G04 #@! TA.AperFunction,ComponentPad*
%ADD18R,2.500000X2.500000*%
G04 #@! TD*
G04 #@! TA.AperFunction,ComponentPad*
%ADD19C,2.500000*%
G04 #@! TD*
G04 #@! TA.AperFunction,ViaPad*
%ADD20C,0.700000*%
G04 #@! TD*
G04 #@! TA.AperFunction,Conductor*
%ADD21C,0.254000*%
G04 #@! TD*
G04 #@! TA.AperFunction,Conductor*
%ADD22C,0.150000*%
G04 #@! TD*
G04 APERTURE END LIST*
D10*
X44240000Y-7700000D03*
D11*
X41700000Y-7700000D03*
D12*
X16100000Y-19850000D03*
X7300000Y-19850000D03*
D10*
X14200000Y-26850000D03*
X11700000Y-26850000D03*
X9200000Y-26850000D03*
D13*
X48451340Y-17037140D03*
D14*
X48451340Y-19577140D03*
X48451340Y-22117140D03*
D13*
X26451340Y-17037140D03*
D14*
X26451340Y-19577140D03*
X26451340Y-22117140D03*
D13*
X37551340Y-16937140D03*
D14*
X37551340Y-19477140D03*
X37551340Y-22017140D03*
D15*
X5000000Y-4700000D03*
X53100000Y-4700000D03*
X5000000Y-95300000D03*
X53100000Y-95300000D03*
D16*
X4069240Y-72339280D03*
D17*
X9069240Y-67339280D03*
X9069240Y-69839280D03*
X9069240Y-74839280D03*
X9069240Y-77339280D03*
D18*
X31770340Y-5651400D03*
D19*
X26690340Y-5651400D03*
D20*
X10300000Y-21550000D03*
X13850000Y-23900000D03*
X15501640Y-16426400D03*
X10250000Y-18950000D03*
X15450000Y-13000000D03*
X12781300Y-18953700D03*
X12781300Y-21534340D03*
X10350000Y-23900000D03*
X4150000Y-87650000D03*
X1850001Y-84750000D03*
X4150000Y-81850000D03*
X53500000Y-33900000D03*
X56300000Y-31600000D03*
X53500000Y-29300000D03*
X50700000Y-31600000D03*
X29350000Y-6300000D03*
X25050000Y-10650000D03*
X26900000Y-8600000D03*
X31200000Y-7900000D03*
X28800000Y-10150000D03*
X25050000Y-13050000D03*
X18850000Y-10700000D03*
X18850000Y-13100000D03*
X22000000Y-13050000D03*
X22000000Y-10750000D03*
X17250000Y-14700000D03*
X29350000Y-3650000D03*
X34050000Y-3550000D03*
X34000000Y-7450000D03*
X26900000Y-12250000D03*
X17150000Y-11200000D03*
X13650000Y-14750000D03*
X10350000Y-28250000D03*
X12950000Y-28300000D03*
X11550000Y-30650000D03*
X14400000Y-31000000D03*
X15100000Y-28750000D03*
X17250000Y-31150000D03*
X17350000Y-28800000D03*
X35300000Y-22100000D03*
X33300000Y-24150000D03*
X30850000Y-26400000D03*
X27450000Y-26850000D03*
X27150000Y-30250000D03*
X29450000Y-28650000D03*
X26850000Y-28600000D03*
X26600000Y-32000000D03*
X28500000Y-32050000D03*
X37500000Y-24150000D03*
X35550000Y-26000000D03*
X33100000Y-28500000D03*
X30750000Y-30800000D03*
X23100000Y-25350000D03*
X23100000Y-21850000D03*
X24300000Y-18400000D03*
X20800000Y-20550000D03*
X22250000Y-19050000D03*
X20500000Y-26600000D03*
X20750000Y-23750000D03*
X28650000Y-18600000D03*
X28650000Y-20700000D03*
X24150000Y-15700000D03*
X28700000Y-15700000D03*
X35250000Y-18400000D03*
X35150000Y-15600000D03*
X39850000Y-15550000D03*
X39850000Y-18400000D03*
X39850000Y-20750000D03*
X39750000Y-23250000D03*
X27400000Y-24200000D03*
X29650000Y-24000000D03*
X31300000Y-21900000D03*
X33400000Y-20050000D03*
X19650000Y-32700000D03*
X22600000Y-30900000D03*
X22750000Y-33650000D03*
X19900000Y-36600000D03*
X21450000Y-35100000D03*
X11400000Y-16500000D03*
D21*
X56990001Y-99290000D02*
X710000Y-99290000D01*
X710000Y-94941984D01*
X1365000Y-94941984D01*
X1365000Y-95658016D01*
X1504691Y-96360290D01*
X1778705Y-97021818D01*
X2176511Y-97617177D01*
X2682823Y-98123489D01*
X3278182Y-98521295D01*
X3939710Y-98795309D01*
X4641984Y-98935000D01*
X5358016Y-98935000D01*
X6060290Y-98795309D01*
X6721818Y-98521295D01*
X7317177Y-98123489D01*
X7823489Y-97617177D01*
X8221295Y-97021818D01*
X8495309Y-96360290D01*
X8635000Y-95658016D01*
X8635000Y-94941984D01*
X49465000Y-94941984D01*
X49465000Y-95658016D01*
X49604691Y-96360290D01*
X49878705Y-97021818D01*
X50276511Y-97617177D01*
X50782823Y-98123489D01*
X51378182Y-98521295D01*
X52039710Y-98795309D01*
X52741984Y-98935000D01*
X53458016Y-98935000D01*
X54160290Y-98795309D01*
X54821818Y-98521295D01*
X55417177Y-98123489D01*
X55923489Y-97617177D01*
X56321295Y-97021818D01*
X56595309Y-96360290D01*
X56735000Y-95658016D01*
X56735000Y-94941984D01*
X56595309Y-94239710D01*
X56321295Y-93578182D01*
X55923489Y-92982823D01*
X55417177Y-92476511D01*
X54821818Y-92078705D01*
X54160290Y-91804691D01*
X53458016Y-91665000D01*
X52741984Y-91665000D01*
X52039710Y-91804691D01*
X51378182Y-92078705D01*
X50782823Y-92476511D01*
X50276511Y-92982823D01*
X49878705Y-93578182D01*
X49604691Y-94239710D01*
X49465000Y-94941984D01*
X8635000Y-94941984D01*
X8495309Y-94239710D01*
X8221295Y-93578182D01*
X7823489Y-92982823D01*
X7317177Y-92476511D01*
X6721818Y-92078705D01*
X6060290Y-91804691D01*
X5358016Y-91665000D01*
X4641984Y-91665000D01*
X3939710Y-91804691D01*
X3278182Y-92078705D01*
X2682823Y-92476511D01*
X2176511Y-92982823D01*
X1778705Y-93578182D01*
X1504691Y-94239710D01*
X1365000Y-94941984D01*
X710000Y-94941984D01*
X710000Y-80195320D01*
X14120000Y-80195320D01*
X14203448Y-81761023D01*
X14452848Y-83308986D01*
X14865373Y-84821670D01*
X15436350Y-86281935D01*
X16159308Y-87673237D01*
X17026058Y-88979811D01*
X18026777Y-90186853D01*
X19150127Y-91280687D01*
X20383381Y-92248920D01*
X21712566Y-93080580D01*
X23122620Y-93766245D01*
X24597568Y-94298147D01*
X26120697Y-94670257D01*
X27674751Y-94878361D01*
X29242120Y-94920100D01*
X30805047Y-94795001D01*
X32345822Y-94504482D01*
X33846988Y-94051835D01*
X35291537Y-93442188D01*
X36663100Y-92682448D01*
X37946138Y-91781224D01*
X39126112Y-90748728D01*
X40189655Y-89596657D01*
X41124714Y-88338065D01*
X41920696Y-86987213D01*
X42568582Y-85559405D01*
X43061031Y-84070821D01*
X43392463Y-82538325D01*
X43559123Y-80979283D01*
X43559123Y-79411357D01*
X43392463Y-77852315D01*
X43061031Y-76319819D01*
X42568582Y-74831235D01*
X41920696Y-73403427D01*
X41124714Y-72052575D01*
X40189655Y-70793983D01*
X39126112Y-69641912D01*
X37946138Y-68609416D01*
X36663100Y-67708192D01*
X35291537Y-66948452D01*
X33846988Y-66338805D01*
X32345822Y-65886158D01*
X30805047Y-65595639D01*
X29242120Y-65470540D01*
X27674751Y-65512279D01*
X26120697Y-65720383D01*
X24597568Y-66092493D01*
X23122620Y-66624395D01*
X21712566Y-67310060D01*
X20383381Y-68141720D01*
X19150127Y-69109953D01*
X18026777Y-70203787D01*
X17026058Y-71410829D01*
X16159308Y-72717403D01*
X15436350Y-74108705D01*
X14865373Y-75568970D01*
X14452848Y-77081654D01*
X14203448Y-78629617D01*
X14120000Y-80195320D01*
X710000Y-80195320D01*
X710000Y-77888549D01*
X724797Y-77924272D01*
X859953Y-78126547D01*
X1031973Y-78298567D01*
X1234248Y-78433723D01*
X1459004Y-78526820D01*
X1697603Y-78574280D01*
X1940877Y-78574280D01*
X2179476Y-78526820D01*
X2404232Y-78433723D01*
X2606507Y-78298567D01*
X2778527Y-78126547D01*
X2913683Y-77924272D01*
X2944240Y-77850501D01*
X2974797Y-77924272D01*
X3109953Y-78126547D01*
X3281973Y-78298567D01*
X3484248Y-78433723D01*
X3709004Y-78526820D01*
X3947603Y-78574280D01*
X4190877Y-78574280D01*
X4429476Y-78526820D01*
X4654232Y-78433723D01*
X4856507Y-78298567D01*
X5028527Y-78126547D01*
X5163683Y-77924272D01*
X5256780Y-77699516D01*
X5304240Y-77460917D01*
X5304240Y-77217643D01*
X5256780Y-76979044D01*
X5163683Y-76754288D01*
X5028527Y-76552013D01*
X4856507Y-76379993D01*
X4654232Y-76244837D01*
X4429476Y-76151740D01*
X4190877Y-76104280D01*
X3947603Y-76104280D01*
X3709004Y-76151740D01*
X3484248Y-76244837D01*
X3281973Y-76379993D01*
X3109953Y-76552013D01*
X2974797Y-76754288D01*
X2944240Y-76828059D01*
X2913683Y-76754288D01*
X2778527Y-76552013D01*
X2606507Y-76379993D01*
X2404232Y-76244837D01*
X2179476Y-76151740D01*
X1940877Y-76104280D01*
X1697603Y-76104280D01*
X1459004Y-76151740D01*
X1234248Y-76244837D01*
X1031973Y-76379993D01*
X859953Y-76552013D01*
X724797Y-76754288D01*
X710000Y-76790011D01*
X710000Y-70989280D01*
X2531168Y-70989280D01*
X2531168Y-73689280D01*
X2543428Y-73813762D01*
X2579738Y-73933460D01*
X2638703Y-74043774D01*
X2718055Y-74140465D01*
X2814746Y-74219817D01*
X2925060Y-74278782D01*
X3044758Y-74315092D01*
X3169240Y-74327352D01*
X4969240Y-74327352D01*
X5093722Y-74315092D01*
X5213420Y-74278782D01*
X5323734Y-74219817D01*
X5420425Y-74140465D01*
X5499777Y-74043774D01*
X5558742Y-73933460D01*
X5595052Y-73813762D01*
X5607312Y-73689280D01*
X5607312Y-70989280D01*
X5595052Y-70864798D01*
X5558742Y-70745100D01*
X5499777Y-70634786D01*
X5420425Y-70538095D01*
X5323734Y-70458743D01*
X5213420Y-70399778D01*
X5093722Y-70363468D01*
X4969240Y-70351208D01*
X3169240Y-70351208D01*
X3044758Y-70363468D01*
X2925060Y-70399778D01*
X2814746Y-70458743D01*
X2718055Y-70538095D01*
X2638703Y-70634786D01*
X2579738Y-70745100D01*
X2543428Y-70864798D01*
X2531168Y-70989280D01*
X710000Y-70989280D01*
X710000Y-67888549D01*
X724797Y-67924272D01*
X859953Y-68126547D01*
X1031973Y-68298567D01*
X1234248Y-68433723D01*
X1459004Y-68526820D01*
X1697603Y-68574280D01*
X1940877Y-68574280D01*
X2179476Y-68526820D01*
X2404232Y-68433723D01*
X2606507Y-68298567D01*
X2778527Y-68126547D01*
X2913683Y-67924272D01*
X2944240Y-67850501D01*
X2974797Y-67924272D01*
X3109953Y-68126547D01*
X3281973Y-68298567D01*
X3484248Y-68433723D01*
X3709004Y-68526820D01*
X3947603Y-68574280D01*
X4190877Y-68574280D01*
X4429476Y-68526820D01*
X4654232Y-68433723D01*
X4856507Y-68298567D01*
X5028527Y-68126547D01*
X5163683Y-67924272D01*
X5256780Y-67699516D01*
X5304240Y-67460917D01*
X5304240Y-67217643D01*
X5256780Y-66979044D01*
X5163683Y-66754288D01*
X5028527Y-66552013D01*
X4915794Y-66439280D01*
X7081168Y-66439280D01*
X7081168Y-68239280D01*
X7093428Y-68363762D01*
X7129738Y-68483460D01*
X7186301Y-68589280D01*
X7129738Y-68695100D01*
X7093428Y-68814798D01*
X7081168Y-68939280D01*
X7081168Y-70739280D01*
X7093428Y-70863762D01*
X7129738Y-70983460D01*
X7188703Y-71093774D01*
X7268055Y-71190465D01*
X7364746Y-71269817D01*
X7475060Y-71328782D01*
X7594758Y-71365092D01*
X7719240Y-71377352D01*
X8285926Y-71377352D01*
X8281973Y-71379993D01*
X8109953Y-71552013D01*
X7974797Y-71754288D01*
X7881700Y-71979044D01*
X7834240Y-72217643D01*
X7834240Y-72460917D01*
X7881700Y-72699516D01*
X7974797Y-72924272D01*
X8109953Y-73126547D01*
X8281973Y-73298567D01*
X8285926Y-73301208D01*
X7719240Y-73301208D01*
X7594758Y-73313468D01*
X7475060Y-73349778D01*
X7364746Y-73408743D01*
X7268055Y-73488095D01*
X7188703Y-73584786D01*
X7129738Y-73695100D01*
X7093428Y-73814798D01*
X7081168Y-73939280D01*
X7081168Y-75739280D01*
X7093428Y-75863762D01*
X7129738Y-75983460D01*
X7186301Y-76089280D01*
X7129738Y-76195100D01*
X7093428Y-76314798D01*
X7081168Y-76439280D01*
X7081168Y-78239280D01*
X7093428Y-78363762D01*
X7129738Y-78483460D01*
X7188703Y-78593774D01*
X7268055Y-78690465D01*
X7364746Y-78769817D01*
X7475060Y-78828782D01*
X7594758Y-78865092D01*
X7719240Y-78877352D01*
X10419240Y-78877352D01*
X10543722Y-78865092D01*
X10663420Y-78828782D01*
X10773734Y-78769817D01*
X10870425Y-78690465D01*
X10949777Y-78593774D01*
X11008742Y-78483460D01*
X11045052Y-78363762D01*
X11057312Y-78239280D01*
X11057312Y-76439280D01*
X11045052Y-76314798D01*
X11008742Y-76195100D01*
X10952179Y-76089280D01*
X11008742Y-75983460D01*
X11045052Y-75863762D01*
X11057312Y-75739280D01*
X11057312Y-73939280D01*
X11045052Y-73814798D01*
X11008742Y-73695100D01*
X10949777Y-73584786D01*
X10870425Y-73488095D01*
X10773734Y-73408743D01*
X10663420Y-73349778D01*
X10543722Y-73313468D01*
X10419240Y-73301208D01*
X9852554Y-73301208D01*
X9856507Y-73298567D01*
X10028527Y-73126547D01*
X10163683Y-72924272D01*
X10256780Y-72699516D01*
X10304240Y-72460917D01*
X10304240Y-72217643D01*
X10256780Y-71979044D01*
X10163683Y-71754288D01*
X10028527Y-71552013D01*
X9856507Y-71379993D01*
X9852554Y-71377352D01*
X10419240Y-71377352D01*
X10543722Y-71365092D01*
X10663420Y-71328782D01*
X10773734Y-71269817D01*
X10870425Y-71190465D01*
X10949777Y-71093774D01*
X11008742Y-70983460D01*
X11045052Y-70863762D01*
X11057312Y-70739280D01*
X11057312Y-68939280D01*
X11045052Y-68814798D01*
X11008742Y-68695100D01*
X10952179Y-68589280D01*
X11008742Y-68483460D01*
X11045052Y-68363762D01*
X11057312Y-68239280D01*
X11057312Y-66439280D01*
X11045052Y-66314798D01*
X11008742Y-66195100D01*
X10949777Y-66084786D01*
X10870425Y-65988095D01*
X10773734Y-65908743D01*
X10663420Y-65849778D01*
X10543722Y-65813468D01*
X10419240Y-65801208D01*
X7719240Y-65801208D01*
X7594758Y-65813468D01*
X7475060Y-65849778D01*
X7364746Y-65908743D01*
X7268055Y-65988095D01*
X7188703Y-66084786D01*
X7129738Y-66195100D01*
X7093428Y-66314798D01*
X7081168Y-66439280D01*
X4915794Y-66439280D01*
X4856507Y-66379993D01*
X4654232Y-66244837D01*
X4429476Y-66151740D01*
X4190877Y-66104280D01*
X3947603Y-66104280D01*
X3709004Y-66151740D01*
X3484248Y-66244837D01*
X3281973Y-66379993D01*
X3109953Y-66552013D01*
X2974797Y-66754288D01*
X2944240Y-66828059D01*
X2913683Y-66754288D01*
X2778527Y-66552013D01*
X2606507Y-66379993D01*
X2404232Y-66244837D01*
X2179476Y-66151740D01*
X1940877Y-66104280D01*
X1697603Y-66104280D01*
X1459004Y-66151740D01*
X1234248Y-66244837D01*
X1031973Y-66379993D01*
X859953Y-66552013D01*
X724797Y-66754288D01*
X710000Y-66790011D01*
X710000Y-27914080D01*
X8315525Y-27914080D01*
X8399208Y-28168261D01*
X8671775Y-28299158D01*
X8964642Y-28374365D01*
X9266553Y-28390991D01*
X9565907Y-28348397D01*
X9851199Y-28248222D01*
X10000792Y-28168261D01*
X10084475Y-27914080D01*
X9200000Y-27029605D01*
X8315525Y-27914080D01*
X710000Y-27914080D01*
X710000Y-26916553D01*
X7659009Y-26916553D01*
X7701603Y-27215907D01*
X7801778Y-27501199D01*
X7881739Y-27650792D01*
X8135920Y-27734475D01*
X9020395Y-26850000D01*
X9379605Y-26850000D01*
X10264080Y-27734475D01*
X10412262Y-27685690D01*
X10507688Y-27828505D01*
X10721495Y-28042312D01*
X10972905Y-28210299D01*
X11252257Y-28326011D01*
X11548816Y-28385000D01*
X11851184Y-28385000D01*
X12147743Y-28326011D01*
X12427095Y-28210299D01*
X12678505Y-28042312D01*
X12892312Y-27828505D01*
X12950000Y-27742169D01*
X13007688Y-27828505D01*
X13221495Y-28042312D01*
X13472905Y-28210299D01*
X13752257Y-28326011D01*
X14048816Y-28385000D01*
X14351184Y-28385000D01*
X14647743Y-28326011D01*
X14927095Y-28210299D01*
X15178505Y-28042312D01*
X15392312Y-27828505D01*
X15560299Y-27577095D01*
X15676011Y-27297743D01*
X15735000Y-27001184D01*
X15735000Y-26698816D01*
X15676011Y-26402257D01*
X15560299Y-26122905D01*
X15392312Y-25871495D01*
X15178505Y-25657688D01*
X14927095Y-25489701D01*
X14647743Y-25373989D01*
X14351184Y-25315000D01*
X14048816Y-25315000D01*
X13752257Y-25373989D01*
X13472905Y-25489701D01*
X13221495Y-25657688D01*
X13007688Y-25871495D01*
X12950000Y-25957831D01*
X12892312Y-25871495D01*
X12678505Y-25657688D01*
X12427095Y-25489701D01*
X12147743Y-25373989D01*
X11851184Y-25315000D01*
X11548816Y-25315000D01*
X11252257Y-25373989D01*
X10972905Y-25489701D01*
X10721495Y-25657688D01*
X10507688Y-25871495D01*
X10412262Y-26014310D01*
X10264080Y-25965525D01*
X9379605Y-26850000D01*
X9020395Y-26850000D01*
X8135920Y-25965525D01*
X7881739Y-26049208D01*
X7750842Y-26321775D01*
X7675635Y-26614642D01*
X7659009Y-26916553D01*
X710000Y-26916553D01*
X710000Y-25785920D01*
X8315525Y-25785920D01*
X9200000Y-26670395D01*
X10084475Y-25785920D01*
X10000792Y-25531739D01*
X9728225Y-25400842D01*
X9435358Y-25325635D01*
X9133447Y-25309009D01*
X8834093Y-25351603D01*
X8548801Y-25451778D01*
X8399208Y-25531739D01*
X8315525Y-25785920D01*
X710000Y-25785920D01*
X710000Y-19590475D01*
X4665000Y-19590475D01*
X4665000Y-20109525D01*
X4766261Y-20618601D01*
X4964893Y-21098141D01*
X5253262Y-21529715D01*
X5620285Y-21896738D01*
X6051859Y-22185107D01*
X6531399Y-22383739D01*
X7040475Y-22485000D01*
X7559525Y-22485000D01*
X8068601Y-22383739D01*
X8548141Y-22185107D01*
X8979715Y-21896738D01*
X9346738Y-21529715D01*
X9635107Y-21098141D01*
X9833739Y-20618601D01*
X9935000Y-20109525D01*
X9935000Y-19590475D01*
X13465000Y-19590475D01*
X13465000Y-20109525D01*
X13566261Y-20618601D01*
X13764893Y-21098141D01*
X14053262Y-21529715D01*
X14420285Y-21896738D01*
X14851859Y-22185107D01*
X15331399Y-22383739D01*
X15840475Y-22485000D01*
X16359525Y-22485000D01*
X16493629Y-22458325D01*
X24609022Y-22458325D01*
X24623167Y-22529824D01*
X24729198Y-22781008D01*
X24882195Y-23006680D01*
X25076279Y-23198168D01*
X25303991Y-23348112D01*
X25556580Y-23450751D01*
X25824340Y-23502140D01*
X26324340Y-23502140D01*
X26324340Y-22244140D01*
X26578340Y-22244140D01*
X26578340Y-23502140D01*
X27078340Y-23502140D01*
X27346100Y-23450751D01*
X27598689Y-23348112D01*
X27826401Y-23198168D01*
X28020485Y-23006680D01*
X28173482Y-22781008D01*
X28279513Y-22529824D01*
X28293658Y-22458325D01*
X28170996Y-22244140D01*
X26578340Y-22244140D01*
X26324340Y-22244140D01*
X24731684Y-22244140D01*
X24609022Y-22458325D01*
X16493629Y-22458325D01*
X16868601Y-22383739D01*
X17348141Y-22185107D01*
X17779715Y-21896738D01*
X18146738Y-21529715D01*
X18435107Y-21098141D01*
X18633739Y-20618601D01*
X18735000Y-20109525D01*
X18735000Y-19590475D01*
X18732348Y-19577140D01*
X24559639Y-19577140D01*
X24586380Y-19848647D01*
X24665576Y-20109721D01*
X24794183Y-20350328D01*
X24967259Y-20561221D01*
X25178152Y-20734297D01*
X25393918Y-20849626D01*
X25303991Y-20886168D01*
X25076279Y-21036112D01*
X24882195Y-21227600D01*
X24729198Y-21453272D01*
X24623167Y-21704456D01*
X24609022Y-21775955D01*
X24731684Y-21990140D01*
X26324340Y-21990140D01*
X26324340Y-21970140D01*
X26578340Y-21970140D01*
X26578340Y-21990140D01*
X28170996Y-21990140D01*
X28293658Y-21775955D01*
X28279513Y-21704456D01*
X28173482Y-21453272D01*
X28020485Y-21227600D01*
X27826401Y-21036112D01*
X27598689Y-20886168D01*
X27508762Y-20849626D01*
X27724528Y-20734297D01*
X27935421Y-20561221D01*
X28108497Y-20350328D01*
X28237104Y-20109721D01*
X28316300Y-19848647D01*
X28343041Y-19577140D01*
X28333192Y-19477140D01*
X35659639Y-19477140D01*
X35686380Y-19748647D01*
X35765576Y-20009721D01*
X35894183Y-20250328D01*
X36067259Y-20461221D01*
X36278152Y-20634297D01*
X36489267Y-20747140D01*
X36278152Y-20859983D01*
X36067259Y-21033059D01*
X35894183Y-21243952D01*
X35765576Y-21484559D01*
X35686380Y-21745633D01*
X35659639Y-22017140D01*
X35686380Y-22288647D01*
X35765576Y-22549721D01*
X35894183Y-22790328D01*
X36067259Y-23001221D01*
X36278152Y-23174297D01*
X36518759Y-23302904D01*
X36779833Y-23382100D01*
X36983303Y-23402140D01*
X38119377Y-23402140D01*
X38322847Y-23382100D01*
X38583921Y-23302904D01*
X38824528Y-23174297D01*
X39035421Y-23001221D01*
X39208497Y-22790328D01*
X39337104Y-22549721D01*
X39416300Y-22288647D01*
X39443041Y-22017140D01*
X39416300Y-21745633D01*
X39337104Y-21484559D01*
X39208497Y-21243952D01*
X39035421Y-21033059D01*
X38824528Y-20859983D01*
X38613413Y-20747140D01*
X38824528Y-20634297D01*
X39035421Y-20461221D01*
X39208497Y-20250328D01*
X39337104Y-20009721D01*
X39416300Y-19748647D01*
X39433191Y-19577140D01*
X46559639Y-19577140D01*
X46586380Y-19848647D01*
X46665576Y-20109721D01*
X46794183Y-20350328D01*
X46967259Y-20561221D01*
X47178152Y-20734297D01*
X47389267Y-20847140D01*
X47178152Y-20959983D01*
X46967259Y-21133059D01*
X46794183Y-21343952D01*
X46665576Y-21584559D01*
X46586380Y-21845633D01*
X46559639Y-22117140D01*
X46586380Y-22388647D01*
X46665576Y-22649721D01*
X46794183Y-22890328D01*
X46967259Y-23101221D01*
X47178152Y-23274297D01*
X47418759Y-23402904D01*
X47679833Y-23482100D01*
X47883303Y-23502140D01*
X49019377Y-23502140D01*
X49222847Y-23482100D01*
X49483921Y-23402904D01*
X49724528Y-23274297D01*
X49935421Y-23101221D01*
X50108497Y-22890328D01*
X50237104Y-22649721D01*
X50316300Y-22388647D01*
X50343041Y-22117140D01*
X50316300Y-21845633D01*
X50237104Y-21584559D01*
X50108497Y-21343952D01*
X49935421Y-21133059D01*
X49724528Y-20959983D01*
X49513413Y-20847140D01*
X49724528Y-20734297D01*
X49935421Y-20561221D01*
X50108497Y-20350328D01*
X50237104Y-20109721D01*
X50316300Y-19848647D01*
X50343041Y-19577140D01*
X50316300Y-19305633D01*
X50237104Y-19044559D01*
X50108497Y-18803952D01*
X49935421Y-18593059D01*
X49727732Y-18422613D01*
X49825822Y-18412952D01*
X49945520Y-18376642D01*
X50055834Y-18317677D01*
X50152525Y-18238325D01*
X50231877Y-18141634D01*
X50290842Y-18031320D01*
X50327152Y-17911622D01*
X50339412Y-17787140D01*
X50339412Y-16287140D01*
X50327152Y-16162658D01*
X50290842Y-16042960D01*
X50231877Y-15932646D01*
X50152525Y-15835955D01*
X50055834Y-15756603D01*
X49945520Y-15697638D01*
X49825822Y-15661328D01*
X49701340Y-15649068D01*
X47201340Y-15649068D01*
X47076858Y-15661328D01*
X46957160Y-15697638D01*
X46846846Y-15756603D01*
X46750155Y-15835955D01*
X46670803Y-15932646D01*
X46611838Y-16042960D01*
X46575528Y-16162658D01*
X46563268Y-16287140D01*
X46563268Y-17787140D01*
X46575528Y-17911622D01*
X46611838Y-18031320D01*
X46670803Y-18141634D01*
X46750155Y-18238325D01*
X46846846Y-18317677D01*
X46957160Y-18376642D01*
X47076858Y-18412952D01*
X47174948Y-18422613D01*
X46967259Y-18593059D01*
X46794183Y-18803952D01*
X46665576Y-19044559D01*
X46586380Y-19305633D01*
X46559639Y-19577140D01*
X39433191Y-19577140D01*
X39443041Y-19477140D01*
X39416300Y-19205633D01*
X39337104Y-18944559D01*
X39208497Y-18703952D01*
X39035421Y-18493059D01*
X38827732Y-18322613D01*
X38925822Y-18312952D01*
X39045520Y-18276642D01*
X39155834Y-18217677D01*
X39252525Y-18138325D01*
X39331877Y-18041634D01*
X39390842Y-17931320D01*
X39427152Y-17811622D01*
X39439412Y-17687140D01*
X39439412Y-16187140D01*
X39427152Y-16062658D01*
X39390842Y-15942960D01*
X39331877Y-15832646D01*
X39252525Y-15735955D01*
X39155834Y-15656603D01*
X39045520Y-15597638D01*
X38925822Y-15561328D01*
X38801340Y-15549068D01*
X36301340Y-15549068D01*
X36176858Y-15561328D01*
X36057160Y-15597638D01*
X35946846Y-15656603D01*
X35850155Y-15735955D01*
X35770803Y-15832646D01*
X35711838Y-15942960D01*
X35675528Y-16062658D01*
X35663268Y-16187140D01*
X35663268Y-17687140D01*
X35675528Y-17811622D01*
X35711838Y-17931320D01*
X35770803Y-18041634D01*
X35850155Y-18138325D01*
X35946846Y-18217677D01*
X36057160Y-18276642D01*
X36176858Y-18312952D01*
X36274948Y-18322613D01*
X36067259Y-18493059D01*
X35894183Y-18703952D01*
X35765576Y-18944559D01*
X35686380Y-19205633D01*
X35659639Y-19477140D01*
X28333192Y-19477140D01*
X28316300Y-19305633D01*
X28237104Y-19044559D01*
X28108497Y-18803952D01*
X27935421Y-18593059D01*
X27727732Y-18422613D01*
X27825822Y-18412952D01*
X27945520Y-18376642D01*
X28055834Y-18317677D01*
X28152525Y-18238325D01*
X28231877Y-18141634D01*
X28290842Y-18031320D01*
X28327152Y-17911622D01*
X28339412Y-17787140D01*
X28339412Y-16287140D01*
X28327152Y-16162658D01*
X28290842Y-16042960D01*
X28231877Y-15932646D01*
X28152525Y-15835955D01*
X28055834Y-15756603D01*
X27945520Y-15697638D01*
X27825822Y-15661328D01*
X27701340Y-15649068D01*
X25201340Y-15649068D01*
X25076858Y-15661328D01*
X24957160Y-15697638D01*
X24846846Y-15756603D01*
X24750155Y-15835955D01*
X24670803Y-15932646D01*
X24611838Y-16042960D01*
X24575528Y-16162658D01*
X24563268Y-16287140D01*
X24563268Y-17787140D01*
X24575528Y-17911622D01*
X24611838Y-18031320D01*
X24670803Y-18141634D01*
X24750155Y-18238325D01*
X24846846Y-18317677D01*
X24957160Y-18376642D01*
X25076858Y-18412952D01*
X25174948Y-18422613D01*
X24967259Y-18593059D01*
X24794183Y-18803952D01*
X24665576Y-19044559D01*
X24586380Y-19305633D01*
X24559639Y-19577140D01*
X18732348Y-19577140D01*
X18633739Y-19081399D01*
X18435107Y-18601859D01*
X18146738Y-18170285D01*
X17779715Y-17803262D01*
X17348141Y-17514893D01*
X16868601Y-17316261D01*
X16359525Y-17215000D01*
X15840475Y-17215000D01*
X15331399Y-17316261D01*
X14851859Y-17514893D01*
X14420285Y-17803262D01*
X14053262Y-18170285D01*
X13764893Y-18601859D01*
X13566261Y-19081399D01*
X13465000Y-19590475D01*
X9935000Y-19590475D01*
X9833739Y-19081399D01*
X9635107Y-18601859D01*
X9346738Y-18170285D01*
X8979715Y-17803262D01*
X8548141Y-17514893D01*
X8068601Y-17316261D01*
X7559525Y-17215000D01*
X7040475Y-17215000D01*
X6531399Y-17316261D01*
X6051859Y-17514893D01*
X5620285Y-17803262D01*
X5253262Y-18170285D01*
X4964893Y-18601859D01*
X4766261Y-19081399D01*
X4665000Y-19590475D01*
X710000Y-19590475D01*
X710000Y-8600000D01*
X40161928Y-8600000D01*
X40174188Y-8724482D01*
X40210498Y-8844180D01*
X40269463Y-8954494D01*
X40348815Y-9051185D01*
X40445506Y-9130537D01*
X40555820Y-9189502D01*
X40675518Y-9225812D01*
X40800000Y-9238072D01*
X41414250Y-9235000D01*
X41573000Y-9076250D01*
X41573000Y-7827000D01*
X40323750Y-7827000D01*
X40165000Y-7985750D01*
X40161928Y-8600000D01*
X710000Y-8600000D01*
X710000Y-4341984D01*
X1365000Y-4341984D01*
X1365000Y-5058016D01*
X1504691Y-5760290D01*
X1778705Y-6421818D01*
X2176511Y-7017177D01*
X2682823Y-7523489D01*
X3278182Y-7921295D01*
X3939710Y-8195309D01*
X4641984Y-8335000D01*
X5358016Y-8335000D01*
X6060290Y-8195309D01*
X6721818Y-7921295D01*
X7317177Y-7523489D01*
X7823489Y-7017177D01*
X7858349Y-6965005D01*
X25556340Y-6965005D01*
X25682254Y-7254977D01*
X26014466Y-7420833D01*
X26372652Y-7518690D01*
X26743046Y-7544789D01*
X27111415Y-7498125D01*
X27463602Y-7380494D01*
X27698426Y-7254977D01*
X27824340Y-6965005D01*
X26690340Y-5831005D01*
X25556340Y-6965005D01*
X7858349Y-6965005D01*
X8221295Y-6421818D01*
X8495309Y-5760290D01*
X8506484Y-5704106D01*
X24796951Y-5704106D01*
X24843615Y-6072475D01*
X24961246Y-6424662D01*
X25086763Y-6659486D01*
X25376735Y-6785400D01*
X26510735Y-5651400D01*
X26869945Y-5651400D01*
X28003945Y-6785400D01*
X28293917Y-6659486D01*
X28459773Y-6327274D01*
X28557630Y-5969088D01*
X28583729Y-5598694D01*
X28537065Y-5230325D01*
X28419434Y-4878138D01*
X28293917Y-4643314D01*
X28003945Y-4517400D01*
X26869945Y-5651400D01*
X26510735Y-5651400D01*
X25376735Y-4517400D01*
X25086763Y-4643314D01*
X24920907Y-4975526D01*
X24823050Y-5333712D01*
X24796951Y-5704106D01*
X8506484Y-5704106D01*
X8635000Y-5058016D01*
X8635000Y-4341984D01*
X8634167Y-4337795D01*
X25556340Y-4337795D01*
X26690340Y-5471795D01*
X27760735Y-4401400D01*
X29882268Y-4401400D01*
X29882268Y-6901400D01*
X29894528Y-7025882D01*
X29930838Y-7145580D01*
X29989803Y-7255894D01*
X30069155Y-7352585D01*
X30165846Y-7431937D01*
X30276160Y-7490902D01*
X30395858Y-7527212D01*
X30520340Y-7539472D01*
X33020340Y-7539472D01*
X33144822Y-7527212D01*
X33264520Y-7490902D01*
X33374834Y-7431937D01*
X33471525Y-7352585D01*
X33550877Y-7255894D01*
X33609842Y-7145580D01*
X33646152Y-7025882D01*
X33658412Y-6901400D01*
X33658412Y-6800000D01*
X40161928Y-6800000D01*
X40165000Y-7414250D01*
X40323750Y-7573000D01*
X41573000Y-7573000D01*
X41573000Y-6323750D01*
X41827000Y-6323750D01*
X41827000Y-7573000D01*
X41847000Y-7573000D01*
X41847000Y-7827000D01*
X41827000Y-7827000D01*
X41827000Y-9076250D01*
X41985750Y-9235000D01*
X42600000Y-9238072D01*
X42724482Y-9225812D01*
X42844180Y-9189502D01*
X42954494Y-9130537D01*
X43051185Y-9051185D01*
X43130537Y-8954494D01*
X43189502Y-8844180D01*
X43195056Y-8825873D01*
X43261495Y-8892312D01*
X43512905Y-9060299D01*
X43792257Y-9176011D01*
X44088816Y-9235000D01*
X44391184Y-9235000D01*
X44687743Y-9176011D01*
X44967095Y-9060299D01*
X45218505Y-8892312D01*
X45432312Y-8678505D01*
X45600299Y-8427095D01*
X45716011Y-8147743D01*
X45775000Y-7851184D01*
X45775000Y-7548816D01*
X45716011Y-7252257D01*
X45600299Y-6972905D01*
X45432312Y-6721495D01*
X45218505Y-6507688D01*
X44967095Y-6339701D01*
X44687743Y-6223989D01*
X44391184Y-6165000D01*
X44088816Y-6165000D01*
X43792257Y-6223989D01*
X43512905Y-6339701D01*
X43261495Y-6507688D01*
X43195056Y-6574127D01*
X43189502Y-6555820D01*
X43130537Y-6445506D01*
X43051185Y-6348815D01*
X42954494Y-6269463D01*
X42844180Y-6210498D01*
X42724482Y-6174188D01*
X42600000Y-6161928D01*
X41985750Y-6165000D01*
X41827000Y-6323750D01*
X41573000Y-6323750D01*
X41414250Y-6165000D01*
X40800000Y-6161928D01*
X40675518Y-6174188D01*
X40555820Y-6210498D01*
X40445506Y-6269463D01*
X40348815Y-6348815D01*
X40269463Y-6445506D01*
X40210498Y-6555820D01*
X40174188Y-6675518D01*
X40161928Y-6800000D01*
X33658412Y-6800000D01*
X33658412Y-4401400D01*
X33652561Y-4341984D01*
X49465000Y-4341984D01*
X49465000Y-5058016D01*
X49604691Y-5760290D01*
X49878705Y-6421818D01*
X50276511Y-7017177D01*
X50782823Y-7523489D01*
X51378182Y-7921295D01*
X52039710Y-8195309D01*
X52741984Y-8335000D01*
X53458016Y-8335000D01*
X54160290Y-8195309D01*
X54821818Y-7921295D01*
X55417177Y-7523489D01*
X55923489Y-7017177D01*
X56321295Y-6421818D01*
X56595309Y-5760290D01*
X56735000Y-5058016D01*
X56735000Y-4341984D01*
X56595309Y-3639710D01*
X56321295Y-2978182D01*
X55923489Y-2382823D01*
X55417177Y-1876511D01*
X54821818Y-1478705D01*
X54160290Y-1204691D01*
X53458016Y-1065000D01*
X52741984Y-1065000D01*
X52039710Y-1204691D01*
X51378182Y-1478705D01*
X50782823Y-1876511D01*
X50276511Y-2382823D01*
X49878705Y-2978182D01*
X49604691Y-3639710D01*
X49465000Y-4341984D01*
X33652561Y-4341984D01*
X33646152Y-4276918D01*
X33609842Y-4157220D01*
X33550877Y-4046906D01*
X33471525Y-3950215D01*
X33374834Y-3870863D01*
X33264520Y-3811898D01*
X33144822Y-3775588D01*
X33020340Y-3763328D01*
X30520340Y-3763328D01*
X30395858Y-3775588D01*
X30276160Y-3811898D01*
X30165846Y-3870863D01*
X30069155Y-3950215D01*
X29989803Y-4046906D01*
X29930838Y-4157220D01*
X29894528Y-4276918D01*
X29882268Y-4401400D01*
X27760735Y-4401400D01*
X27824340Y-4337795D01*
X27698426Y-4047823D01*
X27366214Y-3881967D01*
X27008028Y-3784110D01*
X26637634Y-3758011D01*
X26269265Y-3804675D01*
X25917078Y-3922306D01*
X25682254Y-4047823D01*
X25556340Y-4337795D01*
X8634167Y-4337795D01*
X8495309Y-3639710D01*
X8221295Y-2978182D01*
X7823489Y-2382823D01*
X7317177Y-1876511D01*
X6721818Y-1478705D01*
X6060290Y-1204691D01*
X5358016Y-1065000D01*
X4641984Y-1065000D01*
X3939710Y-1204691D01*
X3278182Y-1478705D01*
X2682823Y-1876511D01*
X2176511Y-2382823D01*
X1778705Y-2978182D01*
X1504691Y-3639710D01*
X1365000Y-4341984D01*
X710000Y-4341984D01*
X710000Y-710000D01*
X56990000Y-710000D01*
X56990001Y-99290000D01*
G04 #@! TA.AperFunction,Conductor*
D22*
G36*
X56990001Y-99290000D02*
G01*
X710000Y-99290000D01*
X710000Y-94941984D01*
X1365000Y-94941984D01*
X1365000Y-95658016D01*
X1504691Y-96360290D01*
X1778705Y-97021818D01*
X2176511Y-97617177D01*
X2682823Y-98123489D01*
X3278182Y-98521295D01*
X3939710Y-98795309D01*
X4641984Y-98935000D01*
X5358016Y-98935000D01*
X6060290Y-98795309D01*
X6721818Y-98521295D01*
X7317177Y-98123489D01*
X7823489Y-97617177D01*
X8221295Y-97021818D01*
X8495309Y-96360290D01*
X8635000Y-95658016D01*
X8635000Y-94941984D01*
X49465000Y-94941984D01*
X49465000Y-95658016D01*
X49604691Y-96360290D01*
X49878705Y-97021818D01*
X50276511Y-97617177D01*
X50782823Y-98123489D01*
X51378182Y-98521295D01*
X52039710Y-98795309D01*
X52741984Y-98935000D01*
X53458016Y-98935000D01*
X54160290Y-98795309D01*
X54821818Y-98521295D01*
X55417177Y-98123489D01*
X55923489Y-97617177D01*
X56321295Y-97021818D01*
X56595309Y-96360290D01*
X56735000Y-95658016D01*
X56735000Y-94941984D01*
X56595309Y-94239710D01*
X56321295Y-93578182D01*
X55923489Y-92982823D01*
X55417177Y-92476511D01*
X54821818Y-92078705D01*
X54160290Y-91804691D01*
X53458016Y-91665000D01*
X52741984Y-91665000D01*
X52039710Y-91804691D01*
X51378182Y-92078705D01*
X50782823Y-92476511D01*
X50276511Y-92982823D01*
X49878705Y-93578182D01*
X49604691Y-94239710D01*
X49465000Y-94941984D01*
X8635000Y-94941984D01*
X8495309Y-94239710D01*
X8221295Y-93578182D01*
X7823489Y-92982823D01*
X7317177Y-92476511D01*
X6721818Y-92078705D01*
X6060290Y-91804691D01*
X5358016Y-91665000D01*
X4641984Y-91665000D01*
X3939710Y-91804691D01*
X3278182Y-92078705D01*
X2682823Y-92476511D01*
X2176511Y-92982823D01*
X1778705Y-93578182D01*
X1504691Y-94239710D01*
X1365000Y-94941984D01*
X710000Y-94941984D01*
X710000Y-80195320D01*
X14120000Y-80195320D01*
X14203448Y-81761023D01*
X14452848Y-83308986D01*
X14865373Y-84821670D01*
X15436350Y-86281935D01*
X16159308Y-87673237D01*
X17026058Y-88979811D01*
X18026777Y-90186853D01*
X19150127Y-91280687D01*
X20383381Y-92248920D01*
X21712566Y-93080580D01*
X23122620Y-93766245D01*
X24597568Y-94298147D01*
X26120697Y-94670257D01*
X27674751Y-94878361D01*
X29242120Y-94920100D01*
X30805047Y-94795001D01*
X32345822Y-94504482D01*
X33846988Y-94051835D01*
X35291537Y-93442188D01*
X36663100Y-92682448D01*
X37946138Y-91781224D01*
X39126112Y-90748728D01*
X40189655Y-89596657D01*
X41124714Y-88338065D01*
X41920696Y-86987213D01*
X42568582Y-85559405D01*
X43061031Y-84070821D01*
X43392463Y-82538325D01*
X43559123Y-80979283D01*
X43559123Y-79411357D01*
X43392463Y-77852315D01*
X43061031Y-76319819D01*
X42568582Y-74831235D01*
X41920696Y-73403427D01*
X41124714Y-72052575D01*
X40189655Y-70793983D01*
X39126112Y-69641912D01*
X37946138Y-68609416D01*
X36663100Y-67708192D01*
X35291537Y-66948452D01*
X33846988Y-66338805D01*
X32345822Y-65886158D01*
X30805047Y-65595639D01*
X29242120Y-65470540D01*
X27674751Y-65512279D01*
X26120697Y-65720383D01*
X24597568Y-66092493D01*
X23122620Y-66624395D01*
X21712566Y-67310060D01*
X20383381Y-68141720D01*
X19150127Y-69109953D01*
X18026777Y-70203787D01*
X17026058Y-71410829D01*
X16159308Y-72717403D01*
X15436350Y-74108705D01*
X14865373Y-75568970D01*
X14452848Y-77081654D01*
X14203448Y-78629617D01*
X14120000Y-80195320D01*
X710000Y-80195320D01*
X710000Y-77888549D01*
X724797Y-77924272D01*
X859953Y-78126547D01*
X1031973Y-78298567D01*
X1234248Y-78433723D01*
X1459004Y-78526820D01*
X1697603Y-78574280D01*
X1940877Y-78574280D01*
X2179476Y-78526820D01*
X2404232Y-78433723D01*
X2606507Y-78298567D01*
X2778527Y-78126547D01*
X2913683Y-77924272D01*
X2944240Y-77850501D01*
X2974797Y-77924272D01*
X3109953Y-78126547D01*
X3281973Y-78298567D01*
X3484248Y-78433723D01*
X3709004Y-78526820D01*
X3947603Y-78574280D01*
X4190877Y-78574280D01*
X4429476Y-78526820D01*
X4654232Y-78433723D01*
X4856507Y-78298567D01*
X5028527Y-78126547D01*
X5163683Y-77924272D01*
X5256780Y-77699516D01*
X5304240Y-77460917D01*
X5304240Y-77217643D01*
X5256780Y-76979044D01*
X5163683Y-76754288D01*
X5028527Y-76552013D01*
X4856507Y-76379993D01*
X4654232Y-76244837D01*
X4429476Y-76151740D01*
X4190877Y-76104280D01*
X3947603Y-76104280D01*
X3709004Y-76151740D01*
X3484248Y-76244837D01*
X3281973Y-76379993D01*
X3109953Y-76552013D01*
X2974797Y-76754288D01*
X2944240Y-76828059D01*
X2913683Y-76754288D01*
X2778527Y-76552013D01*
X2606507Y-76379993D01*
X2404232Y-76244837D01*
X2179476Y-76151740D01*
X1940877Y-76104280D01*
X1697603Y-76104280D01*
X1459004Y-76151740D01*
X1234248Y-76244837D01*
X1031973Y-76379993D01*
X859953Y-76552013D01*
X724797Y-76754288D01*
X710000Y-76790011D01*
X710000Y-70989280D01*
X2531168Y-70989280D01*
X2531168Y-73689280D01*
X2543428Y-73813762D01*
X2579738Y-73933460D01*
X2638703Y-74043774D01*
X2718055Y-74140465D01*
X2814746Y-74219817D01*
X2925060Y-74278782D01*
X3044758Y-74315092D01*
X3169240Y-74327352D01*
X4969240Y-74327352D01*
X5093722Y-74315092D01*
X5213420Y-74278782D01*
X5323734Y-74219817D01*
X5420425Y-74140465D01*
X5499777Y-74043774D01*
X5558742Y-73933460D01*
X5595052Y-73813762D01*
X5607312Y-73689280D01*
X5607312Y-70989280D01*
X5595052Y-70864798D01*
X5558742Y-70745100D01*
X5499777Y-70634786D01*
X5420425Y-70538095D01*
X5323734Y-70458743D01*
X5213420Y-70399778D01*
X5093722Y-70363468D01*
X4969240Y-70351208D01*
X3169240Y-70351208D01*
X3044758Y-70363468D01*
X2925060Y-70399778D01*
X2814746Y-70458743D01*
X2718055Y-70538095D01*
X2638703Y-70634786D01*
X2579738Y-70745100D01*
X2543428Y-70864798D01*
X2531168Y-70989280D01*
X710000Y-70989280D01*
X710000Y-67888549D01*
X724797Y-67924272D01*
X859953Y-68126547D01*
X1031973Y-68298567D01*
X1234248Y-68433723D01*
X1459004Y-68526820D01*
X1697603Y-68574280D01*
X1940877Y-68574280D01*
X2179476Y-68526820D01*
X2404232Y-68433723D01*
X2606507Y-68298567D01*
X2778527Y-68126547D01*
X2913683Y-67924272D01*
X2944240Y-67850501D01*
X2974797Y-67924272D01*
X3109953Y-68126547D01*
X3281973Y-68298567D01*
X3484248Y-68433723D01*
X3709004Y-68526820D01*
X3947603Y-68574280D01*
X4190877Y-68574280D01*
X4429476Y-68526820D01*
X4654232Y-68433723D01*
X4856507Y-68298567D01*
X5028527Y-68126547D01*
X5163683Y-67924272D01*
X5256780Y-67699516D01*
X5304240Y-67460917D01*
X5304240Y-67217643D01*
X5256780Y-66979044D01*
X5163683Y-66754288D01*
X5028527Y-66552013D01*
X4915794Y-66439280D01*
X7081168Y-66439280D01*
X7081168Y-68239280D01*
X7093428Y-68363762D01*
X7129738Y-68483460D01*
X7186301Y-68589280D01*
X7129738Y-68695100D01*
X7093428Y-68814798D01*
X7081168Y-68939280D01*
X7081168Y-70739280D01*
X7093428Y-70863762D01*
X7129738Y-70983460D01*
X7188703Y-71093774D01*
X7268055Y-71190465D01*
X7364746Y-71269817D01*
X7475060Y-71328782D01*
X7594758Y-71365092D01*
X7719240Y-71377352D01*
X8285926Y-71377352D01*
X8281973Y-71379993D01*
X8109953Y-71552013D01*
X7974797Y-71754288D01*
X7881700Y-71979044D01*
X7834240Y-72217643D01*
X7834240Y-72460917D01*
X7881700Y-72699516D01*
X7974797Y-72924272D01*
X8109953Y-73126547D01*
X8281973Y-73298567D01*
X8285926Y-73301208D01*
X7719240Y-73301208D01*
X7594758Y-73313468D01*
X7475060Y-73349778D01*
X7364746Y-73408743D01*
X7268055Y-73488095D01*
X7188703Y-73584786D01*
X7129738Y-73695100D01*
X7093428Y-73814798D01*
X7081168Y-73939280D01*
X7081168Y-75739280D01*
X7093428Y-75863762D01*
X7129738Y-75983460D01*
X7186301Y-76089280D01*
X7129738Y-76195100D01*
X7093428Y-76314798D01*
X7081168Y-76439280D01*
X7081168Y-78239280D01*
X7093428Y-78363762D01*
X7129738Y-78483460D01*
X7188703Y-78593774D01*
X7268055Y-78690465D01*
X7364746Y-78769817D01*
X7475060Y-78828782D01*
X7594758Y-78865092D01*
X7719240Y-78877352D01*
X10419240Y-78877352D01*
X10543722Y-78865092D01*
X10663420Y-78828782D01*
X10773734Y-78769817D01*
X10870425Y-78690465D01*
X10949777Y-78593774D01*
X11008742Y-78483460D01*
X11045052Y-78363762D01*
X11057312Y-78239280D01*
X11057312Y-76439280D01*
X11045052Y-76314798D01*
X11008742Y-76195100D01*
X10952179Y-76089280D01*
X11008742Y-75983460D01*
X11045052Y-75863762D01*
X11057312Y-75739280D01*
X11057312Y-73939280D01*
X11045052Y-73814798D01*
X11008742Y-73695100D01*
X10949777Y-73584786D01*
X10870425Y-73488095D01*
X10773734Y-73408743D01*
X10663420Y-73349778D01*
X10543722Y-73313468D01*
X10419240Y-73301208D01*
X9852554Y-73301208D01*
X9856507Y-73298567D01*
X10028527Y-73126547D01*
X10163683Y-72924272D01*
X10256780Y-72699516D01*
X10304240Y-72460917D01*
X10304240Y-72217643D01*
X10256780Y-71979044D01*
X10163683Y-71754288D01*
X10028527Y-71552013D01*
X9856507Y-71379993D01*
X9852554Y-71377352D01*
X10419240Y-71377352D01*
X10543722Y-71365092D01*
X10663420Y-71328782D01*
X10773734Y-71269817D01*
X10870425Y-71190465D01*
X10949777Y-71093774D01*
X11008742Y-70983460D01*
X11045052Y-70863762D01*
X11057312Y-70739280D01*
X11057312Y-68939280D01*
X11045052Y-68814798D01*
X11008742Y-68695100D01*
X10952179Y-68589280D01*
X11008742Y-68483460D01*
X11045052Y-68363762D01*
X11057312Y-68239280D01*
X11057312Y-66439280D01*
X11045052Y-66314798D01*
X11008742Y-66195100D01*
X10949777Y-66084786D01*
X10870425Y-65988095D01*
X10773734Y-65908743D01*
X10663420Y-65849778D01*
X10543722Y-65813468D01*
X10419240Y-65801208D01*
X7719240Y-65801208D01*
X7594758Y-65813468D01*
X7475060Y-65849778D01*
X7364746Y-65908743D01*
X7268055Y-65988095D01*
X7188703Y-66084786D01*
X7129738Y-66195100D01*
X7093428Y-66314798D01*
X7081168Y-66439280D01*
X4915794Y-66439280D01*
X4856507Y-66379993D01*
X4654232Y-66244837D01*
X4429476Y-66151740D01*
X4190877Y-66104280D01*
X3947603Y-66104280D01*
X3709004Y-66151740D01*
X3484248Y-66244837D01*
X3281973Y-66379993D01*
X3109953Y-66552013D01*
X2974797Y-66754288D01*
X2944240Y-66828059D01*
X2913683Y-66754288D01*
X2778527Y-66552013D01*
X2606507Y-66379993D01*
X2404232Y-66244837D01*
X2179476Y-66151740D01*
X1940877Y-66104280D01*
X1697603Y-66104280D01*
X1459004Y-66151740D01*
X1234248Y-66244837D01*
X1031973Y-66379993D01*
X859953Y-66552013D01*
X724797Y-66754288D01*
X710000Y-66790011D01*
X710000Y-27914080D01*
X8315525Y-27914080D01*
X8399208Y-28168261D01*
X8671775Y-28299158D01*
X8964642Y-28374365D01*
X9266553Y-28390991D01*
X9565907Y-28348397D01*
X9851199Y-28248222D01*
X10000792Y-28168261D01*
X10084475Y-27914080D01*
X9200000Y-27029605D01*
X8315525Y-27914080D01*
X710000Y-27914080D01*
X710000Y-26916553D01*
X7659009Y-26916553D01*
X7701603Y-27215907D01*
X7801778Y-27501199D01*
X7881739Y-27650792D01*
X8135920Y-27734475D01*
X9020395Y-26850000D01*
X9379605Y-26850000D01*
X10264080Y-27734475D01*
X10412262Y-27685690D01*
X10507688Y-27828505D01*
X10721495Y-28042312D01*
X10972905Y-28210299D01*
X11252257Y-28326011D01*
X11548816Y-28385000D01*
X11851184Y-28385000D01*
X12147743Y-28326011D01*
X12427095Y-28210299D01*
X12678505Y-28042312D01*
X12892312Y-27828505D01*
X12950000Y-27742169D01*
X13007688Y-27828505D01*
X13221495Y-28042312D01*
X13472905Y-28210299D01*
X13752257Y-28326011D01*
X14048816Y-28385000D01*
X14351184Y-28385000D01*
X14647743Y-28326011D01*
X14927095Y-28210299D01*
X15178505Y-28042312D01*
X15392312Y-27828505D01*
X15560299Y-27577095D01*
X15676011Y-27297743D01*
X15735000Y-27001184D01*
X15735000Y-26698816D01*
X15676011Y-26402257D01*
X15560299Y-26122905D01*
X15392312Y-25871495D01*
X15178505Y-25657688D01*
X14927095Y-25489701D01*
X14647743Y-25373989D01*
X14351184Y-25315000D01*
X14048816Y-25315000D01*
X13752257Y-25373989D01*
X13472905Y-25489701D01*
X13221495Y-25657688D01*
X13007688Y-25871495D01*
X12950000Y-25957831D01*
X12892312Y-25871495D01*
X12678505Y-25657688D01*
X12427095Y-25489701D01*
X12147743Y-25373989D01*
X11851184Y-25315000D01*
X11548816Y-25315000D01*
X11252257Y-25373989D01*
X10972905Y-25489701D01*
X10721495Y-25657688D01*
X10507688Y-25871495D01*
X10412262Y-26014310D01*
X10264080Y-25965525D01*
X9379605Y-26850000D01*
X9020395Y-26850000D01*
X8135920Y-25965525D01*
X7881739Y-26049208D01*
X7750842Y-26321775D01*
X7675635Y-26614642D01*
X7659009Y-26916553D01*
X710000Y-26916553D01*
X710000Y-25785920D01*
X8315525Y-25785920D01*
X9200000Y-26670395D01*
X10084475Y-25785920D01*
X10000792Y-25531739D01*
X9728225Y-25400842D01*
X9435358Y-25325635D01*
X9133447Y-25309009D01*
X8834093Y-25351603D01*
X8548801Y-25451778D01*
X8399208Y-25531739D01*
X8315525Y-25785920D01*
X710000Y-25785920D01*
X710000Y-19590475D01*
X4665000Y-19590475D01*
X4665000Y-20109525D01*
X4766261Y-20618601D01*
X4964893Y-21098141D01*
X5253262Y-21529715D01*
X5620285Y-21896738D01*
X6051859Y-22185107D01*
X6531399Y-22383739D01*
X7040475Y-22485000D01*
X7559525Y-22485000D01*
X8068601Y-22383739D01*
X8548141Y-22185107D01*
X8979715Y-21896738D01*
X9346738Y-21529715D01*
X9635107Y-21098141D01*
X9833739Y-20618601D01*
X9935000Y-20109525D01*
X9935000Y-19590475D01*
X13465000Y-19590475D01*
X13465000Y-20109525D01*
X13566261Y-20618601D01*
X13764893Y-21098141D01*
X14053262Y-21529715D01*
X14420285Y-21896738D01*
X14851859Y-22185107D01*
X15331399Y-22383739D01*
X15840475Y-22485000D01*
X16359525Y-22485000D01*
X16493629Y-22458325D01*
X24609022Y-22458325D01*
X24623167Y-22529824D01*
X24729198Y-22781008D01*
X24882195Y-23006680D01*
X25076279Y-23198168D01*
X25303991Y-23348112D01*
X25556580Y-23450751D01*
X25824340Y-23502140D01*
X26324340Y-23502140D01*
X26324340Y-22244140D01*
X26578340Y-22244140D01*
X26578340Y-23502140D01*
X27078340Y-23502140D01*
X27346100Y-23450751D01*
X27598689Y-23348112D01*
X27826401Y-23198168D01*
X28020485Y-23006680D01*
X28173482Y-22781008D01*
X28279513Y-22529824D01*
X28293658Y-22458325D01*
X28170996Y-22244140D01*
X26578340Y-22244140D01*
X26324340Y-22244140D01*
X24731684Y-22244140D01*
X24609022Y-22458325D01*
X16493629Y-22458325D01*
X16868601Y-22383739D01*
X17348141Y-22185107D01*
X17779715Y-21896738D01*
X18146738Y-21529715D01*
X18435107Y-21098141D01*
X18633739Y-20618601D01*
X18735000Y-20109525D01*
X18735000Y-19590475D01*
X18732348Y-19577140D01*
X24559639Y-19577140D01*
X24586380Y-19848647D01*
X24665576Y-20109721D01*
X24794183Y-20350328D01*
X24967259Y-20561221D01*
X25178152Y-20734297D01*
X25393918Y-20849626D01*
X25303991Y-20886168D01*
X25076279Y-21036112D01*
X24882195Y-21227600D01*
X24729198Y-21453272D01*
X24623167Y-21704456D01*
X24609022Y-21775955D01*
X24731684Y-21990140D01*
X26324340Y-21990140D01*
X26324340Y-21970140D01*
X26578340Y-21970140D01*
X26578340Y-21990140D01*
X28170996Y-21990140D01*
X28293658Y-21775955D01*
X28279513Y-21704456D01*
X28173482Y-21453272D01*
X28020485Y-21227600D01*
X27826401Y-21036112D01*
X27598689Y-20886168D01*
X27508762Y-20849626D01*
X27724528Y-20734297D01*
X27935421Y-20561221D01*
X28108497Y-20350328D01*
X28237104Y-20109721D01*
X28316300Y-19848647D01*
X28343041Y-19577140D01*
X28333192Y-19477140D01*
X35659639Y-19477140D01*
X35686380Y-19748647D01*
X35765576Y-20009721D01*
X35894183Y-20250328D01*
X36067259Y-20461221D01*
X36278152Y-20634297D01*
X36489267Y-20747140D01*
X36278152Y-20859983D01*
X36067259Y-21033059D01*
X35894183Y-21243952D01*
X35765576Y-21484559D01*
X35686380Y-21745633D01*
X35659639Y-22017140D01*
X35686380Y-22288647D01*
X35765576Y-22549721D01*
X35894183Y-22790328D01*
X36067259Y-23001221D01*
X36278152Y-23174297D01*
X36518759Y-23302904D01*
X36779833Y-23382100D01*
X36983303Y-23402140D01*
X38119377Y-23402140D01*
X38322847Y-23382100D01*
X38583921Y-23302904D01*
X38824528Y-23174297D01*
X39035421Y-23001221D01*
X39208497Y-22790328D01*
X39337104Y-22549721D01*
X39416300Y-22288647D01*
X39443041Y-22017140D01*
X39416300Y-21745633D01*
X39337104Y-21484559D01*
X39208497Y-21243952D01*
X39035421Y-21033059D01*
X38824528Y-20859983D01*
X38613413Y-20747140D01*
X38824528Y-20634297D01*
X39035421Y-20461221D01*
X39208497Y-20250328D01*
X39337104Y-20009721D01*
X39416300Y-19748647D01*
X39433191Y-19577140D01*
X46559639Y-19577140D01*
X46586380Y-19848647D01*
X46665576Y-20109721D01*
X46794183Y-20350328D01*
X46967259Y-20561221D01*
X47178152Y-20734297D01*
X47389267Y-20847140D01*
X47178152Y-20959983D01*
X46967259Y-21133059D01*
X46794183Y-21343952D01*
X46665576Y-21584559D01*
X46586380Y-21845633D01*
X46559639Y-22117140D01*
X46586380Y-22388647D01*
X46665576Y-22649721D01*
X46794183Y-22890328D01*
X46967259Y-23101221D01*
X47178152Y-23274297D01*
X47418759Y-23402904D01*
X47679833Y-23482100D01*
X47883303Y-23502140D01*
X49019377Y-23502140D01*
X49222847Y-23482100D01*
X49483921Y-23402904D01*
X49724528Y-23274297D01*
X49935421Y-23101221D01*
X50108497Y-22890328D01*
X50237104Y-22649721D01*
X50316300Y-22388647D01*
X50343041Y-22117140D01*
X50316300Y-21845633D01*
X50237104Y-21584559D01*
X50108497Y-21343952D01*
X49935421Y-21133059D01*
X49724528Y-20959983D01*
X49513413Y-20847140D01*
X49724528Y-20734297D01*
X49935421Y-20561221D01*
X50108497Y-20350328D01*
X50237104Y-20109721D01*
X50316300Y-19848647D01*
X50343041Y-19577140D01*
X50316300Y-19305633D01*
X50237104Y-19044559D01*
X50108497Y-18803952D01*
X49935421Y-18593059D01*
X49727732Y-18422613D01*
X49825822Y-18412952D01*
X49945520Y-18376642D01*
X50055834Y-18317677D01*
X50152525Y-18238325D01*
X50231877Y-18141634D01*
X50290842Y-18031320D01*
X50327152Y-17911622D01*
X50339412Y-17787140D01*
X50339412Y-16287140D01*
X50327152Y-16162658D01*
X50290842Y-16042960D01*
X50231877Y-15932646D01*
X50152525Y-15835955D01*
X50055834Y-15756603D01*
X49945520Y-15697638D01*
X49825822Y-15661328D01*
X49701340Y-15649068D01*
X47201340Y-15649068D01*
X47076858Y-15661328D01*
X46957160Y-15697638D01*
X46846846Y-15756603D01*
X46750155Y-15835955D01*
X46670803Y-15932646D01*
X46611838Y-16042960D01*
X46575528Y-16162658D01*
X46563268Y-16287140D01*
X46563268Y-17787140D01*
X46575528Y-17911622D01*
X46611838Y-18031320D01*
X46670803Y-18141634D01*
X46750155Y-18238325D01*
X46846846Y-18317677D01*
X46957160Y-18376642D01*
X47076858Y-18412952D01*
X47174948Y-18422613D01*
X46967259Y-18593059D01*
X46794183Y-18803952D01*
X46665576Y-19044559D01*
X46586380Y-19305633D01*
X46559639Y-19577140D01*
X39433191Y-19577140D01*
X39443041Y-19477140D01*
X39416300Y-19205633D01*
X39337104Y-18944559D01*
X39208497Y-18703952D01*
X39035421Y-18493059D01*
X38827732Y-18322613D01*
X38925822Y-18312952D01*
X39045520Y-18276642D01*
X39155834Y-18217677D01*
X39252525Y-18138325D01*
X39331877Y-18041634D01*
X39390842Y-17931320D01*
X39427152Y-17811622D01*
X39439412Y-17687140D01*
X39439412Y-16187140D01*
X39427152Y-16062658D01*
X39390842Y-15942960D01*
X39331877Y-15832646D01*
X39252525Y-15735955D01*
X39155834Y-15656603D01*
X39045520Y-15597638D01*
X38925822Y-15561328D01*
X38801340Y-15549068D01*
X36301340Y-15549068D01*
X36176858Y-15561328D01*
X36057160Y-15597638D01*
X35946846Y-15656603D01*
X35850155Y-15735955D01*
X35770803Y-15832646D01*
X35711838Y-15942960D01*
X35675528Y-16062658D01*
X35663268Y-16187140D01*
X35663268Y-17687140D01*
X35675528Y-17811622D01*
X35711838Y-17931320D01*
X35770803Y-18041634D01*
X35850155Y-18138325D01*
X35946846Y-18217677D01*
X36057160Y-18276642D01*
X36176858Y-18312952D01*
X36274948Y-18322613D01*
X36067259Y-18493059D01*
X35894183Y-18703952D01*
X35765576Y-18944559D01*
X35686380Y-19205633D01*
X35659639Y-19477140D01*
X28333192Y-19477140D01*
X28316300Y-19305633D01*
X28237104Y-19044559D01*
X28108497Y-18803952D01*
X27935421Y-18593059D01*
X27727732Y-18422613D01*
X27825822Y-18412952D01*
X27945520Y-18376642D01*
X28055834Y-18317677D01*
X28152525Y-18238325D01*
X28231877Y-18141634D01*
X28290842Y-18031320D01*
X28327152Y-17911622D01*
X28339412Y-17787140D01*
X28339412Y-16287140D01*
X28327152Y-16162658D01*
X28290842Y-16042960D01*
X28231877Y-15932646D01*
X28152525Y-15835955D01*
X28055834Y-15756603D01*
X27945520Y-15697638D01*
X27825822Y-15661328D01*
X27701340Y-15649068D01*
X25201340Y-15649068D01*
X25076858Y-15661328D01*
X24957160Y-15697638D01*
X24846846Y-15756603D01*
X24750155Y-15835955D01*
X24670803Y-15932646D01*
X24611838Y-16042960D01*
X24575528Y-16162658D01*
X24563268Y-16287140D01*
X24563268Y-17787140D01*
X24575528Y-17911622D01*
X24611838Y-18031320D01*
X24670803Y-18141634D01*
X24750155Y-18238325D01*
X24846846Y-18317677D01*
X24957160Y-18376642D01*
X25076858Y-18412952D01*
X25174948Y-18422613D01*
X24967259Y-18593059D01*
X24794183Y-18803952D01*
X24665576Y-19044559D01*
X24586380Y-19305633D01*
X24559639Y-19577140D01*
X18732348Y-19577140D01*
X18633739Y-19081399D01*
X18435107Y-18601859D01*
X18146738Y-18170285D01*
X17779715Y-17803262D01*
X17348141Y-17514893D01*
X16868601Y-17316261D01*
X16359525Y-17215000D01*
X15840475Y-17215000D01*
X15331399Y-17316261D01*
X14851859Y-17514893D01*
X14420285Y-17803262D01*
X14053262Y-18170285D01*
X13764893Y-18601859D01*
X13566261Y-19081399D01*
X13465000Y-19590475D01*
X9935000Y-19590475D01*
X9833739Y-19081399D01*
X9635107Y-18601859D01*
X9346738Y-18170285D01*
X8979715Y-17803262D01*
X8548141Y-17514893D01*
X8068601Y-17316261D01*
X7559525Y-17215000D01*
X7040475Y-17215000D01*
X6531399Y-17316261D01*
X6051859Y-17514893D01*
X5620285Y-17803262D01*
X5253262Y-18170285D01*
X4964893Y-18601859D01*
X4766261Y-19081399D01*
X4665000Y-19590475D01*
X710000Y-19590475D01*
X710000Y-8600000D01*
X40161928Y-8600000D01*
X40174188Y-8724482D01*
X40210498Y-8844180D01*
X40269463Y-8954494D01*
X40348815Y-9051185D01*
X40445506Y-9130537D01*
X40555820Y-9189502D01*
X40675518Y-9225812D01*
X40800000Y-9238072D01*
X41414250Y-9235000D01*
X41573000Y-9076250D01*
X41573000Y-7827000D01*
X40323750Y-7827000D01*
X40165000Y-7985750D01*
X40161928Y-8600000D01*
X710000Y-8600000D01*
X710000Y-4341984D01*
X1365000Y-4341984D01*
X1365000Y-5058016D01*
X1504691Y-5760290D01*
X1778705Y-6421818D01*
X2176511Y-7017177D01*
X2682823Y-7523489D01*
X3278182Y-7921295D01*
X3939710Y-8195309D01*
X4641984Y-8335000D01*
X5358016Y-8335000D01*
X6060290Y-8195309D01*
X6721818Y-7921295D01*
X7317177Y-7523489D01*
X7823489Y-7017177D01*
X7858349Y-6965005D01*
X25556340Y-6965005D01*
X25682254Y-7254977D01*
X26014466Y-7420833D01*
X26372652Y-7518690D01*
X26743046Y-7544789D01*
X27111415Y-7498125D01*
X27463602Y-7380494D01*
X27698426Y-7254977D01*
X27824340Y-6965005D01*
X26690340Y-5831005D01*
X25556340Y-6965005D01*
X7858349Y-6965005D01*
X8221295Y-6421818D01*
X8495309Y-5760290D01*
X8506484Y-5704106D01*
X24796951Y-5704106D01*
X24843615Y-6072475D01*
X24961246Y-6424662D01*
X25086763Y-6659486D01*
X25376735Y-6785400D01*
X26510735Y-5651400D01*
X26869945Y-5651400D01*
X28003945Y-6785400D01*
X28293917Y-6659486D01*
X28459773Y-6327274D01*
X28557630Y-5969088D01*
X28583729Y-5598694D01*
X28537065Y-5230325D01*
X28419434Y-4878138D01*
X28293917Y-4643314D01*
X28003945Y-4517400D01*
X26869945Y-5651400D01*
X26510735Y-5651400D01*
X25376735Y-4517400D01*
X25086763Y-4643314D01*
X24920907Y-4975526D01*
X24823050Y-5333712D01*
X24796951Y-5704106D01*
X8506484Y-5704106D01*
X8635000Y-5058016D01*
X8635000Y-4341984D01*
X8634167Y-4337795D01*
X25556340Y-4337795D01*
X26690340Y-5471795D01*
X27760735Y-4401400D01*
X29882268Y-4401400D01*
X29882268Y-6901400D01*
X29894528Y-7025882D01*
X29930838Y-7145580D01*
X29989803Y-7255894D01*
X30069155Y-7352585D01*
X30165846Y-7431937D01*
X30276160Y-7490902D01*
X30395858Y-7527212D01*
X30520340Y-7539472D01*
X33020340Y-7539472D01*
X33144822Y-7527212D01*
X33264520Y-7490902D01*
X33374834Y-7431937D01*
X33471525Y-7352585D01*
X33550877Y-7255894D01*
X33609842Y-7145580D01*
X33646152Y-7025882D01*
X33658412Y-6901400D01*
X33658412Y-6800000D01*
X40161928Y-6800000D01*
X40165000Y-7414250D01*
X40323750Y-7573000D01*
X41573000Y-7573000D01*
X41573000Y-6323750D01*
X41827000Y-6323750D01*
X41827000Y-7573000D01*
X41847000Y-7573000D01*
X41847000Y-7827000D01*
X41827000Y-7827000D01*
X41827000Y-9076250D01*
X41985750Y-9235000D01*
X42600000Y-9238072D01*
X42724482Y-9225812D01*
X42844180Y-9189502D01*
X42954494Y-9130537D01*
X43051185Y-9051185D01*
X43130537Y-8954494D01*
X43189502Y-8844180D01*
X43195056Y-8825873D01*
X43261495Y-8892312D01*
X43512905Y-9060299D01*
X43792257Y-9176011D01*
X44088816Y-9235000D01*
X44391184Y-9235000D01*
X44687743Y-9176011D01*
X44967095Y-9060299D01*
X45218505Y-8892312D01*
X45432312Y-8678505D01*
X45600299Y-8427095D01*
X45716011Y-8147743D01*
X45775000Y-7851184D01*
X45775000Y-7548816D01*
X45716011Y-7252257D01*
X45600299Y-6972905D01*
X45432312Y-6721495D01*
X45218505Y-6507688D01*
X44967095Y-6339701D01*
X44687743Y-6223989D01*
X44391184Y-6165000D01*
X44088816Y-6165000D01*
X43792257Y-6223989D01*
X43512905Y-6339701D01*
X43261495Y-6507688D01*
X43195056Y-6574127D01*
X43189502Y-6555820D01*
X43130537Y-6445506D01*
X43051185Y-6348815D01*
X42954494Y-6269463D01*
X42844180Y-6210498D01*
X42724482Y-6174188D01*
X42600000Y-6161928D01*
X41985750Y-6165000D01*
X41827000Y-6323750D01*
X41573000Y-6323750D01*
X41414250Y-6165000D01*
X40800000Y-6161928D01*
X40675518Y-6174188D01*
X40555820Y-6210498D01*
X40445506Y-6269463D01*
X40348815Y-6348815D01*
X40269463Y-6445506D01*
X40210498Y-6555820D01*
X40174188Y-6675518D01*
X40161928Y-6800000D01*
X33658412Y-6800000D01*
X33658412Y-4401400D01*
X33652561Y-4341984D01*
X49465000Y-4341984D01*
X49465000Y-5058016D01*
X49604691Y-5760290D01*
X49878705Y-6421818D01*
X50276511Y-7017177D01*
X50782823Y-7523489D01*
X51378182Y-7921295D01*
X52039710Y-8195309D01*
X52741984Y-8335000D01*
X53458016Y-8335000D01*
X54160290Y-8195309D01*
X54821818Y-7921295D01*
X55417177Y-7523489D01*
X55923489Y-7017177D01*
X56321295Y-6421818D01*
X56595309Y-5760290D01*
X56735000Y-5058016D01*
X56735000Y-4341984D01*
X56595309Y-3639710D01*
X56321295Y-2978182D01*
X55923489Y-2382823D01*
X55417177Y-1876511D01*
X54821818Y-1478705D01*
X54160290Y-1204691D01*
X53458016Y-1065000D01*
X52741984Y-1065000D01*
X52039710Y-1204691D01*
X51378182Y-1478705D01*
X50782823Y-1876511D01*
X50276511Y-2382823D01*
X49878705Y-2978182D01*
X49604691Y-3639710D01*
X49465000Y-4341984D01*
X33652561Y-4341984D01*
X33646152Y-4276918D01*
X33609842Y-4157220D01*
X33550877Y-4046906D01*
X33471525Y-3950215D01*
X33374834Y-3870863D01*
X33264520Y-3811898D01*
X33144822Y-3775588D01*
X33020340Y-3763328D01*
X30520340Y-3763328D01*
X30395858Y-3775588D01*
X30276160Y-3811898D01*
X30165846Y-3870863D01*
X30069155Y-3950215D01*
X29989803Y-4046906D01*
X29930838Y-4157220D01*
X29894528Y-4276918D01*
X29882268Y-4401400D01*
X27760735Y-4401400D01*
X27824340Y-4337795D01*
X27698426Y-4047823D01*
X27366214Y-3881967D01*
X27008028Y-3784110D01*
X26637634Y-3758011D01*
X26269265Y-3804675D01*
X25917078Y-3922306D01*
X25682254Y-4047823D01*
X25556340Y-4337795D01*
X8634167Y-4337795D01*
X8495309Y-3639710D01*
X8221295Y-2978182D01*
X7823489Y-2382823D01*
X7317177Y-1876511D01*
X6721818Y-1478705D01*
X6060290Y-1204691D01*
X5358016Y-1065000D01*
X4641984Y-1065000D01*
X3939710Y-1204691D01*
X3278182Y-1478705D01*
X2682823Y-1876511D01*
X2176511Y-2382823D01*
X1778705Y-2978182D01*
X1504691Y-3639710D01*
X1365000Y-4341984D01*
X710000Y-4341984D01*
X710000Y-710000D01*
X56990000Y-710000D01*
X56990001Y-99290000D01*
G37*
G04 #@! TD.AperFunction*
M02*
